<?xml version="1.0" encoding="UTF-8" standalone="no"?>
<!-- Created with Inkscape (http://www.inkscape.org/) -->

<svg
   width="580.64124"
   height="321.25983"
   viewBox="0 0 153.62799 84.999995"
   version="1.1"
   id="svg1"
   xml:space="preserve"
   xmlns="http://www.w3.org/2000/svg"
   xmlns:svg="http://www.w3.org/2000/svg"><defs
     id="defs1" /><g
     id="layer1"
     transform="translate(-332.56168,-264.0839)"><g
       id="g12"
       transform="matrix(0.29757836,0,0,0.29757836,296.0941,227.08798)"
       style="fill:#eeeeee;fill-opacity:1"><path
         d="m 122.5478,124.32326 h 88.00935 l -45.62503,99.59288 -42.38432,-99.59288 m 42.38432,162.12771 c 15.74914,0 28.48867,-12.73841 28.48867,-28.48792 0,-15.74989 -12.73953,-28.25671 -28.48867,-28.25671 -15.74913,0 -28.48866,12.50682 -28.48866,28.25671 0,15.74951 12.73953,28.48792 28.48866,28.48792 m 123.68084,83.84334 c -0.92861,14.59155 -8.57005,26.40359 -21.07848,31.03584 -38.6772,10.42248 -80.83026,15.28631 -115.8044,-8.33814 -15.05552,-19.91856 -10.42369,-71.79934 -10.42369,-71.79934 h 47.24741 c 0,0 -7.17893,62.53522 17.83388,64.15639 12.27717,1.85273 25.47905,-2.77952 29.41743,-14.12836 V 124.32326 h 51.87924 l 0.92861,245.97105 M 452.12713,134.97732 c 20.38486,11.34886 12.50843,68.78864 11.81466,107.00424 -2.7782,9.49611 -11.81466,11.11765 -18.53123,17.83424 6.71657,4.63225 18.99374,7.41138 18.99374,17.83384 0.92487,36.82643 5.5567,77.58995 -3.93822,113.48962 -7.41019,9.26453 -16.90526,14.12835 -28.25756,13.202 -34.97009,3.70548 -73.65134,2.7791 -109.55019,0.92635 V 127.56597 c 41.45945,-2.77952 104.91835,-6.02221 129.4688,7.41135 z m -81.06152,19.22381 v 91.48631 h 35.89885 c 8.33895,0 8.33895,-15.9811 8.33895,-15.9811 v -59.06093 c 0,0 0,-16.44428 -10.65479,-16.44428 z m 0,118.81665 v 107.93061 c 0,0 38.90845,4.63225 44.2378,-10.65408 v -81.06384 c -0.92877,-22.2349 -44.2378,-16.21269 -44.2378,-16.21269 m 222.11387,87.78044 c 0,35.89968 -47.24741,35.2049 -47.24741,1.15797 V 124.32326 h -50.49201 v 279.7864 h 143.36835 v -82.91699 h -45.62893 v 39.60555"
         style="font-size:3.1527px;font-family:fnt0, Futura, Arial;letter-spacing:-0.063054;word-spacing:0;fill:#eeeeee;fill-opacity:1;fill-rule:nonzero;stroke:none;stroke-width:0.221283;stroke-linecap:butt;stroke-linejoin:miter;stroke-miterlimit:4"
         id="path7191" /></g></g><style
     type="text/css"
     id="style1">
	.st0{fill:#8427E2;}
</style><style
     type="text/css"
     id="style1-5">
	.st0{fill:#B12422;}
</style><style
     type="text/css"
     id="style1-2">
	.st0{fill:#00AFB4;}
</style></svg>
