<svg id="visual" viewBox="0 0 1440 700" width="1440" height="700" xmlns="http://www.w3.org/2000/svg" xmlns:xlink="http://www.w3.org/1999/xlink" version="1.1"><rect x="0" y="0" width="1440" height="700" fill="#3d5a80"></rect><path d="M0 600L30 597.7C60 595.3 120 590.7 180 593C240 595.3 300 604.7 360 607.7C420 610.7 480 607.3 540 604C600 600.7 660 597.3 720 599.5C780 601.7 840 609.3 900 614.5C960 619.7 1020 622.3 1080 623.3C1140 624.3 1200 623.7 1260 623.8C1320 624 1380 625 1410 625.5L1440 626L1440 701L1410 701C1380 701 1320 701 1260 701C1200 701 1140 701 1080 701C1020 701 960 701 900 701C840 701 780 701 720 701C660 701 600 701 540 701C480 701 420 701 360 701C300 701 240 701 180 701C120 701 60 701 30 701L0 701Z" fill="#cf8570"></path><path d="M0 628L30 624.8C60 621.7 120 615.3 180 614C240 612.7 300 616.3 360 621C420 625.7 480 631.3 540 634C600 636.7 660 636.3 720 631.7C780 627 840 618 900 617.2C960 616.3 1020 623.7 1080 626C1140 628.3 1200 625.7 1260 620.8C1320 616 1380 609 1410 605.5L1440 602L1440 701L1410 701C1380 701 1320 701 1260 701C1200 701 1140 701 1080 701C1020 701 960 701 900 701C840 701 780 701 720 701C660 701 600 701 540 701C480 701 420 701 360 701C300 701 240 701 180 701C120 701 60 701 30 701L0 701Z" fill="#d88a6e"></path><path d="M0 637L30 633.7C60 630.3 120 623.7 180 624C240 624.3 300 631.7 360 632.2C420 632.7 480 626.3 540 625C600 623.7 660 627.3 720 630.2C780 633 840 635 900 636.8C960 638.7 1020 640.3 1080 642.7C1140 645 1200 648 1260 648C1320 648 1380 645 1410 643.5L1440 642L1440 701L1410 701C1380 701 1320 701 1260 701C1200 701 1140 701 1080 701C1020 701 960 701 900 701C840 701 780 701 720 701C660 701 600 701 540 701C480 701 420 701 360 701C300 701 240 701 180 701C120 701 60 701 30 701L0 701Z" fill="#e08f6b"></path><path d="M0 646L30 648.8C60 651.7 120 657.3 180 656.2C240 655 300 647 360 643.7C420 640.3 480 641.7 540 644.3C600 647 660 651 720 652C780 653 840 651 900 649.8C960 648.7 1020 648.3 1080 650.8C1140 653.3 1200 658.7 1260 661C1320 663.3 1380 662.7 1410 662.3L1440 662L1440 701L1410 701C1380 701 1320 701 1260 701C1200 701 1140 701 1080 701C1020 701 960 701 900 701C840 701 780 701 720 701C660 701 600 701 540 701C480 701 420 701 360 701C300 701 240 701 180 701C120 701 60 701 30 701L0 701Z" fill="#e89568"></path><path d="M0 669L30 667.5C60 666 120 663 180 663.2C240 663.3 300 666.7 360 666.2C420 665.7 480 661.3 540 660C600 658.7 660 660.3 720 661C780 661.7 840 661.3 900 661.2C960 661 1020 661 1080 662.7C1140 664.3 1200 667.7 1260 670C1320 672.3 1380 673.7 1410 674.3L1440 675L1440 701L1410 701C1380 701 1320 701 1260 701C1200 701 1140 701 1080 701C1020 701 960 701 900 701C840 701 780 701 720 701C660 701 600 701 540 701C480 701 420 701 360 701C300 701 240 701 180 701C120 701 60 701 30 701L0 701Z" fill="#ee9b65"></path><path d="M0 672L30 674.7C60 677.3 120 682.7 180 682.3C240 682 300 676 360 673.7C420 671.3 480 672.7 540 675.2C600 677.7 660 681.3 720 682.7C780 684 840 683 900 681.7C960 680.3 1020 678.7 1080 677.2C1140 675.7 1200 674.3 1260 673.5C1320 672.7 1380 672.3 1410 672.2L1440 672L1440 701L1410 701C1380 701 1320 701 1260 701C1200 701 1140 701 1080 701C1020 701 960 701 900 701C840 701 780 701 720 701C660 701 600 701 540 701C480 701 420 701 360 701C300 701 240 701 180 701C120 701 60 701 30 701L0 701Z" fill="#f4a261"></path></svg>