<svg id="visual" viewBox="0 0 1440 700" width="1440" height="700" xmlns="http://www.w3.org/2000/svg" xmlns:xlink="http://www.w3.org/1999/xlink" version="1.1"><rect x="0" y="0" width="1440" height="700" fill="#3d5a80"></rect><path d="M0 533L30 531.7C60 530.3 120 527.7 180 532.3C240 537 300 549 360 556.7C420 564.3 480 567.7 540 572.5C600 577.3 660 583.7 720 581.5C780 579.3 840 568.7 900 566.3C960 564 1020 570 1080 566.2C1140 562.3 1200 548.7 1260 547.5C1320 546.3 1380 557.7 1410 563.3L1440 569L1440 701L1410 701C1380 701 1320 701 1260 701C1200 701 1140 701 1080 701C1020 701 960 701 900 701C840 701 780 701 720 701C660 701 600 701 540 701C480 701 420 701 360 701C300 701 240 701 180 701C120 701 60 701 30 701L0 701Z" fill="#cf8570"></path><path d="M0 565L30 562.5C60 560 120 555 180 560.8C240 566.7 300 583.3 360 587.7C420 592 480 584 540 582.7C600 581.3 660 586.7 720 589.2C780 591.7 840 591.3 900 586.8C960 582.3 1020 573.7 1080 570.8C1140 568 1200 571 1260 577.7C1320 584.3 1380 594.7 1410 599.8L1440 605L1440 701L1410 701C1380 701 1320 701 1260 701C1200 701 1140 701 1080 701C1020 701 960 701 900 701C840 701 780 701 720 701C660 701 600 701 540 701C480 701 420 701 360 701C300 701 240 701 180 701C120 701 60 701 30 701L0 701Z" fill="#d88a6e"></path><path d="M0 586L30 589.7C60 593.3 120 600.7 180 606.5C240 612.3 300 616.7 360 613.2C420 609.7 480 598.3 540 599C600 599.7 660 612.3 720 617.8C780 623.3 840 621.7 900 613.8C960 606 1020 592 1080 588.3C1140 584.7 1200 591.3 1260 592.5C1320 593.7 1380 589.3 1410 587.2L1440 585L1440 701L1410 701C1380 701 1320 701 1260 701C1200 701 1140 701 1080 701C1020 701 960 701 900 701C840 701 780 701 720 701C660 701 600 701 540 701C480 701 420 701 360 701C300 701 240 701 180 701C120 701 60 701 30 701L0 701Z" fill="#e08f6b"></path><path d="M0 609L30 610.7C60 612.3 120 615.7 180 616.2C240 616.7 300 614.3 360 614.5C420 614.7 480 617.3 540 622.2C600 627 660 634 720 631.7C780 629.3 840 617.7 900 617.7C960 617.7 1020 629.3 1080 632.7C1140 636 1200 631 1260 629.8C1320 628.7 1380 631.3 1410 632.7L1440 634L1440 701L1410 701C1380 701 1320 701 1260 701C1200 701 1140 701 1080 701C1020 701 960 701 900 701C840 701 780 701 720 701C660 701 600 701 540 701C480 701 420 701 360 701C300 701 240 701 180 701C120 701 60 701 30 701L0 701Z" fill="#e89568"></path><path d="M0 659L30 657.5C60 656 120 653 180 650C240 647 300 644 360 644C420 644 480 647 540 646.5C600 646 660 642 720 642.3C780 642.7 840 647.3 900 646.8C960 646.3 1020 640.7 1080 639.8C1140 639 1200 643 1260 645.7C1320 648.3 1380 649.7 1410 650.3L1440 651L1440 701L1410 701C1380 701 1320 701 1260 701C1200 701 1140 701 1080 701C1020 701 960 701 900 701C840 701 780 701 720 701C660 701 600 701 540 701C480 701 420 701 360 701C300 701 240 701 180 701C120 701 60 701 30 701L0 701Z" fill="#ee9b65"></path><path d="M0 669L30 669C60 669 120 669 180 669.8C240 670.7 300 672.3 360 674.3C420 676.3 480 678.7 540 675.7C600 672.7 660 664.3 720 661.8C780 659.3 840 662.7 900 665.3C960 668 1020 670 1080 672.8C1140 675.7 1200 679.3 1260 677C1320 674.7 1380 666.3 1410 662.2L1440 658L1440 701L1410 701C1380 701 1320 701 1260 701C1200 701 1140 701 1080 701C1020 701 960 701 900 701C840 701 780 701 720 701C660 701 600 701 540 701C480 701 420 701 360 701C300 701 240 701 180 701C120 701 60 701 30 701L0 701Z" fill="#f4a261"></path></svg>