<?xml version="1.0" encoding="UTF-8" standalone="no"?>
<!-- Created with Inkscape (http://www.inkscape.org/) -->

<svg
   version="1.1"
   id="svg1"
   width="1713.3613"
   height="512.26892"
   viewBox="0 0 1713.3613 512.26892"
   xml:space="preserve"
   xmlns="http://www.w3.org/2000/svg"
   xmlns:svg="http://www.w3.org/2000/svg"><defs
     id="defs1" /><g
     id="g1"
     transform="translate(-62.319585,-743.8678)"><path
       id="path1"
       style="fill:#cf8570;fill-opacity:1;stroke-width:0.282239"
       d="m 256.22215,743.86782 0.004,0.91728 c 0.007,1.38113 -1.0511,32.25856 -1.55948,46.06946 v 28.78176 c 4.02098,-0.64976 8.06187,-1.16221 12.11257,-1.53357 1.69297,-0.1552 3.10344,-0.31566 3.1344,-0.3561 0.031,-0.0404 0.20329,-8.77333 0.38311,-19.40669 0.17983,-10.63335 0.40855,-22.92135 0.50825,-27.30664 l 0.18138,-7.97325 h 12.65665 12.65665 l 0.007,3.59855 c 0.003,1.97921 0.19102,12.93361 0.41675,24.34312 0.22574,11.40952 0.41337,22.09965 0.41675,23.75604 l 0.007,3.01147 1.90511,0.18411 c 21.50143,2.0748 40.00857,6.87865 59.19964,15.36659 14.27015,6.3115 30.02042,16.12738 41.95495,26.14681 l 2.87475,2.41336 2.84556,-2.80034 c 1.56501,-1.54035 10.32408,-10.00869 19.46456,-18.81851 l 16.61903,-16.01816 8.85304,8.84974 c 4.86917,4.86731 8.85305,8.94033 8.85305,9.05093 0,0.11066 -8.35074,8.85631 -18.55721,19.43537 -10.20648,10.57904 -18.58931,19.38024 -18.62835,19.55773 -0.039,0.17747 0.6403,1.14802 1.50933,2.15703 2.41385,2.80261 8.49156,10.98117 11.32594,15.2409 16.74482,25.16547 26.71405,53.06407 29.84072,83.50914 0.22926,2.23243 0.45293,4.08833 0.49722,4.12389 0.0443,0.0356 8.59,0.21201 18.99051,0.39248 10.40051,0.18046 22.56148,0.40889 27.02438,0.5077 l 8.11438,0.17971 v 12.65612 12.65555 l -3.73966,0.01 c -2.05683,0 -9.39151,0.1225 -16.29931,0.2663 -6.9078,0.1438 -17.4148,0.3491 -23.34921,0.4559 l -10.79014,0.194 -0.12955,0.8798 c -0.0713,0.4841 -0.27268,2.4044 -0.44761,4.2672 -0.74214,7.9038 -2.59205,18.2446 -4.79309,26.7967 -6.5764,25.5528 -18.97431,49.9803 -35.62885,70.1971 l -2.71047,3.2898 18.87804,19.5715 c 10.38287,10.7642 18.88099,19.6352 18.88522,19.7137 0.004,0.079 -3.99175,4.1408 -8.88005,9.0272 l -8.88779,8.8846 -2.04898,-2.0104 c -1.12691,-1.1058 -9.966,-9.6346 -19.64261,-18.953 l -17.59419,-16.9426 -3.17466,2.6107 c -11.00286,9.0486 -24.40622,17.6176 -36.6806,23.4501 -20.35345,9.6712 -40.36168,15.188 -62.97183,17.3636 -1.86278,0.1794 -3.43959,0.3784 -3.50427,0.4422 -0.0647,0.063 0.0941,0.1164 0.35279,0.1164 0.58762,0 0.58661,-0.4672 0.0469,26.8126 -0.22574,11.4096 -0.41308,22.364 -0.41676,24.3432 l -0.007,3.5984 H 283.59946 270.8987 l -0.007,-2.3285 c -0.003,-1.2806 -0.19101,-11.6635 -0.41675,-23.0731 -0.55212,-27.9055 -0.54999,-29.3527 0.0469,-29.3527 0.25872,0 0.41184,-0.059 0.34011,-0.1307 -0.0717,-0.072 -1.58503,-0.2637 -3.36315,-0.4268 -4.31148,-0.3953 -8.59103,-0.9365 -12.83196,-1.6212 v 29.3788 c 0.52798,14.0557 1.56716,44.145 1.55948,45.8291 l -0.004,0.9174 h 27.3772 27.37718 v -1.9052 c 0,-6.4581 1.75245,-51.8649 2.00819,-52.023 0.16288,-0.1011 1.397,-0.3366 2.74246,-0.5247 6.29283,-0.8797 17.48367,-3.4182 25.59004,-5.8047 22.7454,-6.696 44.96105,-17.7389 63.84556,-31.7353 l 0.90681,-0.6714 3.46789,3.2463 c 21.84327,20.4468 35.61276,33.2523 35.75453,33.2523 0.0953,0 8.80416,-8.6319 19.35321,-19.1817 l 19.18011,-19.1812 -0.57991,-0.6461 c -1.19305,-1.3294 -33.26357,-35.7036 -34.63271,-37.1205 l -1.42772,-1.4774 0.68354,-0.9217 c 13.97826,-18.8523 25.09227,-41.2115 31.74307,-63.8609 2.3993,-8.171 4.82772,-18.9565 5.81457,-25.8249 0.18958,-1.3194 0.42443,-2.4921 0.52149,-2.6057 0.0971,-0.1137 11.98371,-0.5987 26.41524,-1.0783 14.43158,-0.4795 26.39818,-0.9223 26.59222,-0.984 0.27902,-0.089 0.3528,-5.8093 0.3528,-27.3573 v -27.24487 l -1.05839,10e-4 c -2.53875,0.003 -52.15242,-1.75069 -52.24842,-1.84668 -0.0586,-0.0587 -0.52052,-2.49284 -1.02641,-5.40995 -5.26844,-30.38014 -17.08497,-58.81987 -34.79036,-83.73348 -2.19312,-3.08597 -2.53217,-3.70732 -2.24138,-4.10791 0.18842,-0.25958 8.28084,-8.95574 17.98281,-19.32511 9.70196,-10.36936 17.67395,-18.99895 17.71547,-19.17681 0.0415,-0.17788 -8.56164,-8.95779 -19.11787,-19.51088 l -19.19279,-19.18729 -1.62728,1.57767 c -2.16222,2.0974 -36.22981,33.87408 -36.80628,34.33118 -0.38294,0.30364 -1.08941,-0.0989 -4.75618,-2.70939 -25.08518,-17.85884 -53.68652,-29.72965 -84.43135,-35.04283 -2.66195,-0.46003 -4.88297,-0.87923 -4.93535,-0.93162 -0.10733,-0.10733 -1.79761,-48.65271 -1.79761,-51.62717 v -1.91448 h -27.37718 z" /><g
       id="g2"><circle
         style="fill:none;fill-opacity:1;stroke:#cf8570;stroke-width:9.87836;stroke-dasharray:none;stroke-opacity:1"
         id="path2-9-5"
         cx="84.002853"
         cy="999.99976"
         r="16.744091" /><path
         style="fill:none;fill-opacity:1;stroke:#cf8570;stroke-width:9.87836;stroke-dasharray:none;stroke-opacity:1"
         d="m 101.17412,999.99976 h 87.43542"
         id="path4" /><circle
         style="fill:none;fill-opacity:1;stroke:#cf8570;stroke-width:9.87836;stroke-dasharray:none;stroke-opacity:1"
         id="path2-9-5-3"
         cx="707.10443"
         cy="508.04086"
         r="16.744091"
         transform="rotate(45)" /><path
         style="fill:none;fill-opacity:1;stroke:#cf8570;stroke-width:9.87836;stroke-dasharray:none;stroke-opacity:1"
         d="m 152.90129,871.37954 61.82618,61.82618"
         id="path4-9" /><circle
         style="fill:none;fill-opacity:1;stroke:#cf8570;stroke-width:9.87836;stroke-dasharray:none;stroke-opacity:1"
         id="path2-9-5-3-6"
         cx="-703.05304"
         cy="-911.22913"
         r="16.744053"
         transform="matrix(0.70710678,-0.70710678,-0.70710678,-0.70710678,0,0)" /><path
         style="fill:none;fill-opacity:1;stroke:#cf8570;stroke-width:9.87836;stroke-dasharray:none;stroke-opacity:1"
         d="m 159.34365,1129.3274 61.82618,-61.8272"
         id="path4-9-9" /><path
         id="path2"
         style="fill:none;fill-opacity:1;stroke:#cf8570;stroke-width:18.3455;stroke-dasharray:none;stroke-opacity:1"
         d="M 384.53993,999.99978 A 101.16608,101.16608 0 0 1 283.37388,1101.1658 101.16608,101.16608 0 0 1 182.20781,999.99978 101.16608,101.16608 0 0 1 283.37388,898.8337 101.16608,101.16608 0 0 1 384.53993,999.99978 Z" /></g><g
       id="g28"><path
         style="font-weight:bold;font-size:422.616px;font-family:Montserrat;-inkscape-font-specification:'Montserrat, Bold';display:inline;fill:#cf8570;fill-opacity:1;stroke-width:2289.16"
         d="m 1657.5894,1119.9015 c -22.2664,0 -43.6051,-3.294 -64.016,-9.8821 -20.4109,-6.8876 -46.184,-27.5742 -58.6426,-38.3547 l 21.8688,-54.8011 c 11.9285,9.5827 35.3158,29.3708 51.4855,35.6595 16.4347,5.9892 33.002,8.9838 49.7019,8.9838 12.7237,0 22.9291,-1.3476 30.6163,-4.0427 7.9523,-2.9946 13.7839,-7.0373 17.495,-12.1281 3.7111,-5.0908 5.5667,-10.9303 5.5667,-17.5184 0,-8.3849 -2.9159,-14.973 -8.7476,-19.7643 -5.8316,-5.0908 -13.5188,-9.13351 -23.0616,-12.12813 -9.5428,-3.29405 -20.1459,-6.28865 -31.8092,-8.98378 -11.3983,-2.99459 -22.9292,-6.58811 -34.5925,-10.78055 -11.3983,-4.19243 -21.8688,-9.58269 -31.4115,-16.1708 -9.5428,-6.58811 -17.3626,-15.27244 -23.4593,-26.05298 -5.8317,-10.78054 -8.7475,-24.55567 -8.7475,-41.3254 0,-17.96757 4.2412,-34.28811 12.7236,-48.96162 8.7475,-14.97297 21.7363,-26.80162 38.9662,-35.48594 17.4951,-8.98379 39.364,-13.47568 65.6065,-13.47568 17.4951,0 34.7251,2.39568 51.69,7.18703 16.9649,4.49189 31.9417,11.37946 44.9305,20.6627 l -19.8808,55.25027 c -12.9887,-8.38487 -25.9775,-14.52379 -38.9663,-18.41676 -12.9887,-4.19243 -25.7124,-6.28865 -38.171,-6.28865 -12.4586,0 -22.6641,1.64703 -30.6164,4.94109 -7.9522,3.29405 -13.6513,7.63621 -17.0974,13.02648 -3.446,5.09081 -5.169,11.08 -5.169,17.96757 0,8.0854 2.9159,14.67351 8.7476,19.76432 5.8316,4.79135 13.5188,8.68433 23.0616,11.67892 9.5428,2.99459 20.0133,5.98919 31.4116,8.98378 11.6634,2.99459 23.1942,6.43838 34.5925,10.33135 11.6634,3.89297 22.2665,9.13352 31.8092,15.72163 9.5427,6.58811 17.23,15.27243 23.0617,26.05296 6.0967,10.78054 9.145,24.40589 9.145,40.87619 0,17.6681 -4.3737,33.839 -13.1212,48.5125 -8.7475,14.6735 -21.8688,26.5021 -39.3639,35.4859 -17.2299,8.9838 -39.0987,13.4757 -65.6064,13.4757 z"
         id="path13" /><path
         id="path12"
         style="font-weight:bold;font-size:422.616px;font-family:Montserrat;-inkscape-font-specification:'Montserrat, Bold';display:inline;fill:#cf8570;fill-opacity:1;stroke-width:2213.29"
         d="m 1411.3574,800.08008 c -21.0156,0 -40.4934,3.90724 -58.4336,11.72461 -17.9404,7.81734 -33.5733,18.81879 -46.9004,33.00586 -13.327,14.18706 -23.7062,30.83425 -31.1386,49.94336 -7.1762,19.10912 -10.7657,39.95752 -10.7657,62.54101 0,22.5835 3.5895,43.43008 10.7657,62.53908 7.4324,19.1091 17.6832,35.7562 30.7539,49.9433 13.327,14.1869 28.9603,25.1886 46.9004,33.0059 18.1965,7.8174 37.9313,11.7285 59.2031,11.7285 21.0159,0 40.3649,-3.9111 58.0488,-11.7285 17.9403,-7.8173 33.445,-18.6746 46.5156,-32.5723 13.3271,-14.187 23.7081,-30.8343 31.1407,-49.9433 7.4323,-19.3987 11.1484,-40.38918 11.1484,-62.97268 0,-22.87302 -3.7161,-43.72143 -11.1484,-62.54101 -7.4326,-19.10911 -17.8136,-35.7563 -31.1407,-49.94336 -13.0706,-14.18707 -28.5753,-25.18852 -46.5156,-33.00586 -17.6839,-7.81737 -37.1615,-11.72461 -58.4336,-11.72461 z m 0,114.71484 c 6.1403,0 11.7627,1.05669 16.8672,3.16992 5.178,2.11322 9.6527,5.08677 13.4258,8.92188 3.8468,3.83517 6.8447,8.3362 8.9902,13.50195 2.1456,5.08751 3.2168,10.72301 3.2168,16.90625 0,6.10499 -1.0712,11.7794 -3.2168,17.02344 -2.1455,5.16568 -5.1434,9.66676 -8.9902,13.50195 -3.7731,3.75696 -8.2478,6.69149 -13.4258,8.80469 -5.1045,2.1133 -10.6899,3.16992 -16.7558,3.16992 -6.1405,0 -11.8374,-1.05662 -17.0899,-3.16992 -5.1782,-2.1132 -9.6904,-5.08677 -13.5371,-8.92188 -3.7729,-3.83519 -6.7316,-8.33619 -8.877,-13.50195 -2.0711,-5.16566 -3.1074,-10.80126 -3.1074,-16.90625 0,-6.10492 1.0363,-11.74048 3.1074,-16.90625 2.1454,-5.16575 5.1418,-9.66678 8.9883,-13.50195 3.8469,-3.83511 8.359,-6.80866 13.5371,-8.92188 5.179,-2.11331 10.8014,-3.16992 16.8672,-3.16992 z" /><g
         id="g26"
         style="fill:#cf8570;fill-opacity:1"><path
           id="path2-4"
           style="font-weight:bold;font-size:422.616px;font-family:Montserrat;-inkscape-font-specification:'Montserrat, Bold';display:inline;fill:#cf8570;fill-opacity:1;stroke-width:2261.65"
           d="m 1097.162,800.07811 v 314.43359 h 148.3467 50.7582 116.0984 v -0.01 h -130.7987 -51.6865 v -59.2832 h -69.8435 V 800.07811 Z" /><path
           d="m 1410.3653,1114.5078 c -20.4321,-0.2616 -39.432,-4.1683 -56.9981,-11.7149 -17.9401,-7.8173 -33.5734,-18.8189 -46.9004,-33.0058 -4.2332,-4.5948 -8.1708,-9.4477 -11.8125,-14.5586 h -4.2773 -45.3711 -15.4883 v 59.2832 h 51.2227 129.625 z"
           style="font-weight:bold;font-size:422.616px;font-family:Montserrat;-inkscape-font-specification:'Montserrat, Bold';display:inline;fill:#cf8570;fill-opacity:1;stroke-width:2251.48"
           id="path4-6" /></g><path
         id="path9"
         style="font-weight:bold;font-size:422.616px;font-family:Montserrat;-inkscape-font-specification:'Montserrat, Bold';display:inline;fill:#cf8570;fill-opacity:1;stroke-width:2289.16"
         d="M 911.94336,800.07812 787.88867,1114.5117 h 66.00391 l 24.80273,-67.3789 h 129.01949 l 24.7071,67.3789 h 67.5937 L 975.5625,800.07812 Z m 30.02734,124.7168 34.40235,65 h -65 z" /><g
         id="g27"
         style="fill:#cf8570;fill-opacity:1"><path
           id="path26"
           style="font-weight:bold;font-size:422.616px;font-family:Montserrat;-inkscape-font-specification:'Montserrat, Bold';display:inline;fill:#cf8570;fill-opacity:1;stroke-width:2527.3"
           d="m 826.55533,800.07812 v 59.28711 h 65.37247 l 28.20761,-59.27343 z" /><path
           id="path22"
           style="font-weight:bold;font-size:422.616px;font-family:Montserrat;-inkscape-font-specification:'Montserrat, Bold';display:inline;fill:#cf8570;fill-opacity:1;stroke:none;stroke-width:2301.13"
           d="m 589.669,800.07812 v 59.29297 h 89.99805 v 255.14061 h 65.08984 V 859.37109 h 57.26563 32.73437 0.0293 v -59.28711 h -0.0293 v -0.006 h -32.73437 z" /></g></g><path
       d="m 589.66908,1206 16.90666,-37.3333 h 5.27999 L 628.81572,1206 h -5.59999 l -15.09333,-34.3466 h 2.13333 L 595.16241,1206 Z m 7.19999,-9.3333 1.44,-4.2667 h 21.01332 l 1.54667,4.2667 z M 644.36241,1206 v -37.3333 h 15.73332 q 5.97333,0 10.50666,2.3467 4.58666,2.3466 7.09333,6.56 2.56,4.2133 2.56,9.7599 0,5.5467 -2.56,9.76 -2.50667,4.2134 -7.09333,6.56 Q 666.06906,1206 660.09573,1206 Z m 5.33333,-4.64 h 10.07999 q 4.64,0 8,-1.76 3.41333,-1.76 5.27999,-4.9067 1.86667,-3.2 1.86667,-7.36 0,-4.2133 -1.86667,-7.36 -1.86666,-3.1466 -5.27999,-4.9066 -3.36,-1.76 -8,-1.76 h -10.07999 z m 58.33649,4.64 -16.42666,-37.3333 h 5.76 l 15.09332,34.4533 h -3.30666 l 15.19999,-34.4533 h 5.33333 L 713.31223,1206 Z m 36.40001,0 v -37.3333 h 5.33333 V 1206 Z m 37.41329,0.4267 q -4.26666,0 -8.16,-1.28 -3.89333,-1.3334 -6.13333,-3.4134 l 1.97334,-4.16 q 2.13333,1.8667 5.43999,3.0934 3.30667,1.2266 6.88,1.2266 3.25333,0 5.28,-0.7466 2.02666,-0.7467 2.98666,-2.0267 0.96,-1.3333 0.96,-2.9867 0,-1.92 -1.28,-3.0933 -1.22666,-1.1733 -3.25333,-1.8667 -1.97333,-0.7466 -4.37333,-1.28 -2.4,-0.5333 -4.85333,-1.2266 -2.4,-0.7467 -4.42666,-1.8667 -1.97334,-1.12 -3.2,-2.9867 -1.22667,-1.92 -1.22667,-4.9066 0,-2.88 1.49333,-5.28 1.54667,-2.4533 4.69333,-3.8933 3.2,-1.4934 8.10667,-1.4934 3.25333,0 6.45333,0.8534 3.19999,0.8533 5.54666,2.4533 l -1.76,4.2667 q -2.4,-1.6 -5.06666,-2.2934 -2.66667,-0.7466 -5.17333,-0.7466 -3.14667,0 -5.17333,0.8 -2.02667,0.8 -2.98667,2.1333 -0.90667,1.3333 -0.90667,2.9866 0,1.9734 1.22667,3.1467 1.28,1.1733 3.25333,1.8667 2.02667,0.6933 4.42667,1.28 2.39999,0.5333 4.79999,1.2266 2.45333,0.6934 4.42667,1.8134 2.02666,1.12 3.25333,2.9866 1.22666,1.8667 1.22666,4.8 0,2.8267 -1.54666,5.28 -1.54667,2.4 -4.8,3.8934 -3.2,1.44 -8.10666,1.44 z m 49.09332,0 q -4.26666,0 -7.94666,-1.44 -3.62666,-1.44 -6.29333,-4 -2.66666,-2.6134 -4.15999,-6.08 -1.49334,-3.4667 -1.49334,-7.5734 0,-4.1066 1.49334,-7.5733 1.49333,-3.4666 4.15999,-6.0266 2.66667,-2.6134 6.29333,-4.0534 3.62667,-1.44 7.94666,-1.44 4.26667,0 7.84,1.44 3.62666,1.3867 6.29333,4 2.72,2.56 4.16,6.0267 1.49333,3.4666 1.49333,7.6266 0,4.16 -1.49333,7.6267 -1.44,3.4667 -4.16,6.08 -2.66667,2.56 -6.29333,4 -3.57333,1.3867 -7.84,1.3867 z m 0,-4.7467 q 3.09334,0 5.70667,-1.0667 2.66666,-1.0666 4.58666,-2.9866 1.97333,-1.9734 3.04,-4.5867 1.12,-2.6133 1.12,-5.7067 0,-3.0933 -1.12,-5.7066 -1.06667,-2.6134 -3.04,-4.5333 -1.92,-1.9734 -4.58666,-3.04 -2.61333,-1.0667 -5.70667,-1.0667 -3.14666,0 -5.81333,1.0667 -2.61333,1.0666 -4.58666,3.04 -1.97333,1.9199 -3.09333,4.5333 -1.06667,2.6133 -1.06667,5.7066 0,3.0934 1.06667,5.7067 1.12,2.6133 3.09333,4.5867 1.97333,1.92 4.58666,2.9866 2.66667,1.0667 5.81333,1.0667 z m 37.94667,4.32 v -37.3333 h 14.55999 q 7.25333,0 11.41333,3.4667 4.15999,3.4133 4.15999,9.5466 0,4.0533 -1.86666,6.9867 -1.86667,2.88 -5.33333,4.4266 -3.46667,1.5467 -8.37333,1.5467 h -11.62666 l 2.4,-2.4533 V 1206 Z m 24.95998,0 -9.49332,-13.5467 h 5.70666 L 899.65883,1206 Z m -19.62665,-13.28 -2.4,-2.6133 h 11.46666 q 5.12,0 7.73333,-2.1867 2.66666,-2.24 2.66666,-6.24 0,-4 -2.66666,-6.1866 -2.61333,-2.1867 -7.73333,-2.1867 h -11.46666 l 2.4,-2.6667 z m 51.91993,13.28 v -14.2933 l 1.22666,3.3066 -16.05332,-26.3466 h 5.70666 l 13.49333,22.24 h -3.09333 l 13.54665,-22.24 h 5.28 l -15.99999,26.3466 1.17333,-3.3066 V 1206 Z"
       id="text5"
       style="font-size:53.3333px;line-height:0;font-family:Montserrat;-inkscape-font-specification:'Montserrat, @wght=500';font-variation-settings:'wght' 500;letter-spacing:10px;display:inline;fill:#cf8570;fill-opacity:1;stroke-width:65"
       aria-label="ADVISORY" /><g
       id="g3"
       style="display:none"><path
         style="font-size:53.3333px;line-height:0;font-family:'Roboto Mono';-inkscape-font-specification:'Roboto Mono, @wght=500';font-variation-settings:'wght' 500;letter-spacing:0px;fill:#3d5a80;stroke-width:65"
         d="m 1126.0459,1166.0834 h -7.7605 V 1204 h 5.8594 v -12.8646 l -0.3385,-16.302 5.2864,17.4739 h 3.2552 l 5.8334,-18.0989 -0.3646,16.927 V 1204 h 5.8854 v -37.9166 h -7.7865 l -5.1823,16.2239 z M 1168.7802,1204 h 6.3542 v -0.4427 q -0.5209,-1.0938 -0.8073,-2.6042 -0.2604,-1.5364 -0.2604,-3.4375 v -12.526 q 0,-2.3958 -0.8855,-4.2188 -0.8854,-1.8489 -2.4479,-3.0468 -1.5625,-1.1979 -3.7239,-1.7969 -2.1354,-0.625 -4.6094,-0.625 -2.7604,0 -4.9219,0.7292 -2.1354,0.7031 -3.5937,1.927 -1.5104,1.198 -2.2917,2.7605 -0.7812,1.5625 -0.8073,3.2552 h 6.25 q 0,-0.8073 0.2865,-1.5104 0.3125,-0.7292 0.9375,-1.224 0.625,-0.5469 1.5625,-0.8594 0.9635,-0.3125 2.2396,-0.3125 1.4062,0 2.4739,0.3646 1.0938,0.3385 1.849,0.9896 0.7031,0.651 1.0677,1.5364 0.3906,0.8855 0.3906,1.9792 v 1.9011 h -4.5312 q -3.0469,0 -5.4688,0.5729 -2.3958,0.5729 -4.0365,1.6666 -1.7708,1.1719 -2.7083,2.9688 -0.9114,1.7708 -0.9114,4.0885 0,1.7969 0.7031,3.3594 0.7292,1.5365 2.0312,2.6302 1.2761,1.1198 3.0729,1.7708 1.823,0.625 4.0105,0.625 1.3541,0 2.526,-0.2604 1.1719,-0.2604 2.1875,-0.7291 1.0156,-0.4428 1.8229,-1.0417 0.8334,-0.625 1.4844,-1.3021 0.1302,0.8073 0.2864,1.5625 0.1823,0.7292 0.4688,1.25 z m -7.5781,-4.4792 q -1.1979,0 -2.0834,-0.2864 -0.8854,-0.3125 -1.4843,-0.8334 -0.599,-0.5208 -0.9115,-1.25 -0.3125,-0.7552 -0.3125,-1.6145 0,-1.0417 0.3646,-1.875 0.3906,-0.8334 1.1719,-1.4323 0.8854,-0.7032 2.3698,-1.0677 1.4843,-0.3907 3.5156,-0.3907 h 4.0104 v 5.2084 q -0.3385,0.6771 -0.9635,1.3021 -0.625,0.625 -1.4844,1.1197 -0.8594,0.4948 -1.9271,0.8073 -1.0417,0.3125 -2.2656,0.3125 z m 41.0677,-24.2187 q -2.9167,0 -5.3386,1.3542 -2.3958,1.3541 -4.1146,3.7239 l -0.026,-0.651 -0.2604,-3.9063 h -5.8333 V 1204 h 6.2239 v -17.3958 q 0.4948,-1.25 1.224,-2.2136 0.7291,-0.9635 1.7708,-1.5885 0.9635,-0.651 2.2135,-0.9635 1.25,-0.3125 2.8125,-0.3125 1.3802,0 2.7605,0.1562 1.4062,0.1563 2.8385,0.4688 l 0.8854,-6.1459 q -0.8073,-0.2864 -2.2396,-0.4948 -1.4062,-0.2083 -2.9166,-0.2083 z m 22.2135,16.4323 8.9844,12.2656 h 7.7083 l -12.5521,-16.4323 10.9635,-11.7448 h -7.4999 l -8.4115,8.8542 -2.5781,2.8646 V 1164 h -6.25 v 40 h 6.25 v -9.0625 z m 35.4687,12.7864 q 4.1146,0 7.0052,-1.6145 2.9167,-1.6146 4.3229,-3.6459 l -3.3333,-3.2291 q -1.3021,1.6666 -3.3073,2.5781 -2.0052,0.8854 -4.3229,0.8854 -1.6927,0 -3.125,-0.5729 -1.4062,-0.5729 -2.4479,-1.6146 -1.0417,-0.9896 -1.6406,-2.2396 -0.599,-1.25 -0.8855,-3.0989 v -0.1303 h 19.5313 v -2.6822 q 0,-3.0209 -0.8073,-5.573 -0.8073,-2.552 -2.3958,-4.401 -1.5886,-1.8229 -3.9323,-2.8385 -2.3438,-1.0417 -5.3907,-1.0417 -2.7343,0 -5.1562,1.0417 -2.3958,1.0156 -4.2187,2.9166 -1.823,1.9011 -2.8646,4.5834 -1.0417,2.6823 -1.0417,5.9895 v 1.0677 q 0,2.8907 0.9896,5.3907 1.0156,2.4739 2.8646,4.2968 1.8489,1.849 4.4271,2.8907 2.6041,1.0416 5.7291,1.0416 z m -0.7552,-24.1666 q 1.5625,0 2.7344,0.5469 1.1979,0.5208 1.9791,1.4062 0.8073,0.9115 1.25,2.1354 0.4428,1.1979 0.4428,2.4219 v 0.4167 h -13.2552 q 0.2864,-1.6146 0.8854,-2.8907 0.5989,-1.276 1.4843,-2.1875 0.8855,-0.8854 2.0053,-1.3541 1.1458,-0.4948 2.4739,-0.4948 z m 32.1094,-11.4063 h -6.25 v 6.875 h -6.8229 v 4.6615 h 6.8229 v 13.8541 q 0,2.7084 0.7031,4.6355 0.7292,1.927 2.0052,3.151 1.276,1.25 3.0469,1.849 1.7968,0.5729 3.9323,0.5729 1.1718,0 2.3437,-0.1302 1.1979,-0.1042 2.2917,-0.3125 1.0937,-0.2084 2.0312,-0.4948 0.9636,-0.3125 1.6406,-0.7292 l -0.677,-4.2969 q -0.4688,0.1042 -1.1719,0.2605 -0.6771,0.1302 -1.4583,0.2343 -0.8073,0.1302 -1.6667,0.2084 -0.8594,0.078 -1.6667,0.078 -1.1198,0 -2.0573,-0.2604 -0.9375,-0.2604 -1.6145,-0.8854 -0.6771,-0.599 -1.0678,-1.6407 -0.3645,-1.0677 -0.3645,-2.6302 v -13.4635 h 10.5989 v -4.6615 h -10.5989 z m 20.9374,6.875 v 5.1823 h 8.6719 v 17.8386 h -8.6719 V 1204 h 23.2292 v -5.1562 h -8.2812 v -23.0209 z m 8.099,-7.2916 q 0,0.9896 0.4688,1.7448 0.4947,0.7291 1.4322,1.0156 0.9115,0.2864 1.6667,0.1302 0.7552,-0.1563 1.3021,-0.651 1.0937,-0.2865 1.6667,-1.1198 0.5729,-0.8594 0.3906,-2.0052 -0.1302,-1.1198 -1.0156,-1.823 -0.8594,-0.7291 -2.2657,-0.7291 -0.8333,0 -1.5104,0.2604 -0.651,0.2344 -1.1198,0.6771 -0.4948,0.4687 -0.7552,1.1198 -0.2604,0.625 -0.2604,1.3802 z M 1342.8165,1204 h 6.224 v -20.1042 q 0.4167,-0.7031 0.9635,-1.302 0.5469,-0.599 1.1719,-1.0157 0.8073,-0.5468 1.7969,-0.8333 0.9896,-0.3125 2.1354,-0.3125 1.3802,0 2.4479,0.3125 1.0677,0.2865 1.8229,0.9896 0.7552,0.7031 1.1459,1.875 0.3906,1.1719 0.3906,2.9167 V 1204 h 6.2239 v -17.5781 q 0,-2.9688 -0.7031,-5.0521 -0.7031,-2.1094 -1.9791,-3.4635 -1.2761,-1.3542 -3.073,-1.9792 -1.7968,-0.625 -3.9583,-0.625 -1.6406,0 -3.125,0.4688 -1.4844,0.4687 -2.7344,1.3281 -0.7812,0.5468 -1.4843,1.25 -0.6771,0.6771 -1.25,1.4843 l -0.3907,-4.0104 h -5.625 z m 31.1979,-14.2969 v 0.5469 q 0,3.0469 0.7813,5.6771 0.8073,2.6042 2.2656,4.5052 1.4844,1.9271 3.5677,3.0208 2.0834,1.0677 4.6875,1.0677 1.4323,0 2.6563,-0.3125 1.2239,-0.2864 2.2396,-0.8593 0.677,-0.3646 1.2499,-0.8594 0.599,-0.4948 1.1459,-1.0677 v 1.9531 q 0,1.5885 -0.4688,2.8385 -0.4427,1.25 -1.276,2.1094 -0.9115,0.8854 -2.2135,1.3542 -1.2761,0.4687 -2.9428,0.4687 -0.9635,0 -1.901,-0.2083 -0.9375,-0.1823 -1.849,-0.599 -0.9114,-0.4166 -1.7968,-1.0937 -0.8594,-0.6511 -1.6146,-1.5625 l -2.9427,3.776 q 0.9375,1.25 2.2396,2.1354 1.302,0.8855 2.7343,1.4323 1.4323,0.5469 2.8646,0.8073 1.4323,0.2604 2.6302,0.2604 2.8386,0 5.1823,-0.8072 2.3698,-0.7813 4.0625,-2.2917 1.6667,-1.5365 2.5781,-3.75 0.9375,-2.1875 0.9375,-5.026 v -27.3959 h -5.651 l -0.2604,2.8386 q -0.5209,-0.625 -1.1198,-1.1459 -0.599,-0.5468 -1.2761,-0.9375 -1.0416,-0.625 -2.3177,-0.9375 -1.276,-0.3385 -2.8385,-0.3385 -2.6302,0 -4.7396,1.0677 -2.0833,1.0417 -3.5677,2.9427 -1.4844,1.9011 -2.2656,4.5573 -0.7813,2.6302 -0.7813,5.8333 z m 6.25,0.5469 v -0.5469 q 0,-1.901 0.3907,-3.5677 0.3906,-1.6927 1.2239,-2.9687 0.8073,-1.2761 2.0573,-2.0052 1.25,-0.7292 2.9948,-0.7292 0.9896,0 1.8229,0.2344 0.8334,0.2083 1.5104,0.5729 0.7552,0.4427 1.3282,1.0677 0.5989,0.625 1.0156,1.4063 v 12.3437 q -0.4167,0.7552 -0.9636,1.3802 -0.5468,0.625 -1.25,1.0677 -0.7031,0.4167 -1.5885,0.6511 -0.8594,0.2343 -1.9271,0.2343 -1.7187,0 -2.9687,-0.7031 -1.25,-0.7292 -2.0573,-2.0052 -0.8334,-1.224 -1.224,-2.8906 -0.3646,-1.6667 -0.3646,-3.5417 z m 65.651,13.75 h 6.25 v -23.5156 h 10.4427 v -4.6615 h -10.4427 v -1.7187 q 0,-1.4844 0.3646,-2.6042 0.3906,-1.1198 1.1459,-1.875 0.8072,-0.8073 2.0572,-1.2239 1.2761,-0.4167 3.0209,-0.4167 1.6666,0 2.9687,0.2083 1.3281,0.2084 2.3698,0.4948 l 0.4948,-4.9739 q -0.7812,-0.1563 -1.5365,-0.2865 -0.7552,-0.1562 -1.4843,-0.2604 -0.8854,-0.1302 -1.8229,-0.2083 -0.9115,-0.1042 -1.875,-0.1042 -2.7344,0 -4.948,0.7292 -2.1875,0.7291 -3.75,2.1354 -1.5625,1.4323 -2.4218,3.5416 -0.8334,2.0834 -0.8334,4.8438 v 1.7187 h -7.552 v 4.6615 h 7.552 z m 23.7761,-14.3489 v 0.5468 q 0,3.099 0.8854,5.7031 0.8854,2.6042 2.5781,4.5313 1.6667,1.9271 4.1146,3.0208 2.4479,1.0938 5.5469,1.0938 3.0729,0 5.4947,-1.0938 2.448,-1.0937 4.1146,-3.0208 1.6667,-1.9271 2.5521,-4.5313 0.8854,-2.6041 0.8854,-5.7031 v -0.5468 q 0,-3.073 -0.8854,-5.6771 -0.8854,-2.6302 -2.5521,-4.5573 -1.6927,-1.9271 -4.1406,-3.0209 -2.4219,-1.0937 -5.5208,-1.0937 -3.099,0 -5.5209,1.0937 -2.4218,1.0938 -4.0885,3.0209 -1.6927,1.9271 -2.5781,4.5573 -0.8854,2.6041 -0.8854,5.6771 z m 6.2239,0.5468 v -0.5468 q 0,-1.849 0.3906,-3.5417 0.4167,-1.6927 1.2761,-2.9688 0.8333,-1.276 2.1094,-2.0312 1.302,-0.7552 3.0729,-0.7552 1.7968,0 3.0729,0.7552 1.3021,0.7552 2.1614,2.0312 0.8073,1.2761 1.224,2.9688 0.4167,1.6927 0.4167,3.5417 v 0.5468 q 0,1.9011 -0.4167,3.5938 -0.3906,1.6927 -1.224,2.9687 -0.8333,1.2761 -2.1354,2.0313 -1.3021,0.7291 -3.0468,0.7291 -1.7969,0 -3.099,-0.7291 -1.3021,-0.7552 -2.1354,-2.0313 -0.8594,-1.276 -1.2761,-2.9687 -0.3906,-1.6927 -0.3906,-3.5938 z m 46.4062,-14.8958 q -2.9166,0 -5.3385,1.3542 -2.3958,1.3541 -4.1146,3.7239 l -0.026,-0.651 -0.2604,-3.9063 h -5.8334 V 1204 h 6.224 v -17.3958 q 0.4948,-1.25 1.2239,-2.2136 0.7292,-0.9635 1.7709,-1.5885 0.9635,-0.651 2.2135,-0.9635 1.25,-0.3125 2.8125,-0.3125 1.3802,0 2.7604,0.1562 1.4063,0.1563 2.8386,0.4688 l 0.8854,-6.1459 q -0.8073,-0.2864 -2.2396,-0.4948 -1.4062,-0.2083 -2.9167,-0.2083 z M 1591.2018,1204 v -37.9166 h -6.1198 v 15.8593 h -12.7604 v -15.8593 h -6.0937 V 1204 h 6.0937 v -16.901 h 12.7604 V 1204 Z m 26.1198,0 h 5.651 v -28.1771 h -6.25 v 19.9479 q -0.3646,0.7813 -0.8854,1.4323 -0.5208,0.625 -1.1979,1.0938 -0.8073,0.5208 -1.875,0.8333 -1.0677,0.2865 -2.4219,0.2865 -1.3021,0 -2.2656,-0.3386 -0.9635,-0.3385 -1.5885,-1.1458 -0.625,-0.7813 -0.9115,-2.0833 -0.2865,-1.3282 -0.2865,-3.2813 v -16.7448 h -6.2239 v 16.6927 q 0,3.1771 0.7031,5.4688 0.7031,2.2656 1.9792,3.7239 1.3021,1.4584 3.0989,2.1615 1.8229,0.6771 4.0104,0.6771 2.5521,0 4.6094,-1.1719 2.0573,-1.1979 3.4896,-3.3073 z m 17.0833,-28.1771 h -5.4167 V 1204 h 5.7292 v -21.6406 q 0.1563,-0.3906 0.3385,-0.7031 0.2084,-0.3125 0.4688,-0.5469 0.3385,-0.3386 0.8073,-0.4948 0.4948,-0.1823 1.1198,-0.1823 0.5729,0 1.0156,0.1563 0.4688,0.1562 0.8073,0.4947 0.3385,0.3386 0.4948,0.9375 0.1823,0.573 0.1823,1.4063 V 1204 h 5.625 v -20.9114 q 0,-0.2605 0,-0.3907 0,-0.1562 0,-0.2604 0.1041,-0.4427 0.3125,-0.7812 0.2083,-0.3646 0.5208,-0.625 0.3385,-0.2865 0.7813,-0.4427 0.4427,-0.1563 1.0416,-0.1563 0.5729,0 1.0417,0.1563 0.4948,0.1562 0.8333,0.4947 0.3386,0.3646 0.5209,0.9636 0.1822,0.5729 0.1822,1.4062 V 1204 h 5.7292 v -20.4948 q 0,-2.2135 -0.4687,-3.776 -0.4428,-1.5886 -1.2761,-2.5781 -0.8333,-0.9375 -1.9791,-1.3802 -1.1198,-0.4688 -2.474,-0.4688 -1.0417,0 -1.9271,0.2604 -0.8594,0.2604 -1.5625,0.7292 -0.5469,0.3646 -1.0156,0.8854 -0.4688,0.5208 -0.8333,1.1198 -0.2605,-0.6511 -0.625,-1.1458 -0.3646,-0.5209 -0.8334,-0.8855 -0.5989,-0.4947 -1.4323,-0.7291 -0.8333,-0.2344 -1.875,-0.2344 -2.0052,0 -3.4375,0.9635 -1.4062,0.9636 -2.2135,2.6563 z M 1680.8632,1204 h 6.3542 v -0.4427 q -0.5209,-1.0938 -0.8073,-2.6042 -0.2604,-1.5364 -0.2604,-3.4375 v -12.526 q 0,-2.3958 -0.8855,-4.2188 -0.8854,-1.8489 -2.4479,-3.0468 -1.5625,-1.1979 -3.7239,-1.7969 -2.1354,-0.625 -4.6094,-0.625 -2.7604,0 -4.9219,0.7292 -2.1354,0.7031 -3.5937,1.927 -1.5104,1.198 -2.2917,2.7605 -0.7812,1.5625 -0.8073,3.2552 h 6.25 q 0,-0.8073 0.2865,-1.5104 0.3125,-0.7292 0.9375,-1.224 0.625,-0.5469 1.5625,-0.8594 0.9635,-0.3125 2.2396,-0.3125 1.4062,0 2.4739,0.3646 1.0938,0.3385 1.849,0.9896 0.7031,0.651 1.0677,1.5364 0.3906,0.8855 0.3906,1.9792 v 1.9011 h -4.5312 q -3.0469,0 -5.4688,0.5729 -2.3958,0.5729 -4.0364,1.6666 -1.7709,1.1719 -2.7084,2.9688 -0.9114,1.7708 -0.9114,4.0885 0,1.7969 0.7031,3.3594 0.7292,1.5365 2.0312,2.6302 1.2761,1.1198 3.073,1.7708 1.8229,0.625 4.0104,0.625 1.3541,0 2.526,-0.2604 1.1719,-0.2604 2.1875,-0.7291 1.0156,-0.4428 1.8229,-1.0417 0.8334,-0.625 1.4844,-1.3021 0.1302,0.8073 0.2865,1.5625 0.1822,0.7292 0.4687,1.25 z m -7.5781,-4.4792 q -1.1979,0 -2.0833,-0.2864 -0.8855,-0.3125 -1.4844,-0.8334 -0.599,-0.5208 -0.9115,-1.25 -0.3125,-0.7552 -0.3125,-1.6145 0,-1.0417 0.3646,-1.875 0.3906,-0.8334 1.1719,-1.4323 0.8854,-0.7032 2.3698,-1.0677 1.4843,-0.3907 3.5156,-0.3907 h 4.0104 v 5.2084 q -0.3385,0.6771 -0.9635,1.3021 -0.625,0.625 -1.4844,1.1197 -0.8594,0.4948 -1.9271,0.8073 -1.0417,0.3125 -2.2656,0.3125 z m 21.5885,4.4792 h 6.224 v -20.1042 q 0.4166,-0.7031 0.9635,-1.302 0.5469,-0.599 1.1719,-1.0157 0.8073,-0.5468 1.7969,-0.8333 0.9895,-0.3125 2.1354,-0.3125 1.3802,0 2.4479,0.3125 1.0677,0.2865 1.8229,0.9896 0.7552,0.7031 1.1458,1.875 0.3907,1.1719 0.3907,2.9167 V 1204 h 6.2239 v -17.5781 q 0,-2.9688 -0.7031,-5.0521 -0.7031,-2.1094 -1.9792,-3.4635 -1.276,-1.3542 -3.0729,-1.9792 -1.7969,-0.625 -3.9583,-0.625 -1.6406,0 -3.125,0.4688 -1.4844,0.4687 -2.7344,1.3281 -0.7812,0.5468 -1.4844,1.25 -0.677,0.6771 -1.25,1.4843 l -0.3906,-4.0104 h -5.625 z m 50.4166,-7.6302 q 0,0.6771 -0.3125,1.25 -0.2864,0.5469 -0.8854,1.0156 -0.7291,0.5729 -1.9531,0.9115 -1.1979,0.3385 -2.8125,0.3385 -1.1979,0 -2.3698,-0.2344 -1.1719,-0.2604 -2.0833,-0.8333 -0.9375,-0.5469 -1.5625,-1.4323 -0.599,-0.9114 -0.6771,-2.2135 h -6.0417 q 0,1.7448 0.8334,3.4375 0.8333,1.6927 2.4479,2.9948 1.5885,1.3281 3.9323,2.1354 2.3698,0.8073 5.4166,0.8073 2.7344,0 4.974,-0.625 2.2396,-0.625 3.8542,-1.7448 1.5885,-1.1198 2.4479,-2.6823 0.8854,-1.5625 0.8854,-3.4375 0,-1.9271 -0.8333,-3.3333 -0.8334,-1.4063 -2.3438,-2.448 -1.5104,-0.9895 -3.6458,-1.6666 -2.1354,-0.6771 -4.7136,-1.1458 -1.8489,-0.3125 -3.0729,-0.7032 -1.1979,-0.3906 -1.875,-0.8593 -0.7291,-0.4428 -1.0156,-1.0157 -0.2865,-0.5989 -0.2865,-1.3281 0,-0.7031 0.3386,-1.3281 0.3385,-0.6511 1.0156,-1.1198 0.6771,-0.5208 1.7188,-0.8073 1.0677,-0.3125 2.4739,-0.3125 1.5365,0 2.6823,0.4167 1.1458,0.3906 1.875,1.0677 0.625,0.5729 0.9375,1.3021 0.3385,0.7031 0.3385,1.4843 h 6.224 q 0,-1.901 -0.8333,-3.5416 -0.8334,-1.6407 -2.3698,-2.8386 -1.5625,-1.1979 -3.8021,-1.875 -2.2396,-0.7031 -5.0521,-0.7031 -2.6302,0 -4.7916,0.6771 -2.1355,0.6771 -3.6459,1.8489 -1.5364,1.1719 -2.3698,2.7344 -0.8073,1.5365 -0.8073,3.2552 0,1.7969 0.8073,3.1511 0.8073,1.3541 2.2396,2.3437 1.4583,1.0417 3.4636,1.7708 2.0312,0.7292 4.4791,1.224 1.9531,0.3646 3.2552,0.7812 1.3021,0.4167 2.1094,0.8855 0.7552,0.5208 1.0677,1.0937 0.3385,0.5729 0.3385,1.3021 z m 21.3542,3.8802 q 0,1.7969 1.1719,3.0469 1.1979,1.2239 3.3333,1.2239 2.1094,0 3.3073,-1.2239 1.224,-1.224 1.224,-3.0469 0,-1.8229 -1.198,-3.0729 -1.1979,-1.2761 -3.3333,-1.2761 -2.1875,0 -3.3594,1.2761 -1.1458,1.276 -1.1458,3.0729 z"
         id="text2"
         aria-label="Marketing for Humans." /><path
         style="font-size:53.3333px;line-height:0;font-family:'Roboto Mono';-inkscape-font-specification:'Roboto Mono, @wght=500';font-variation-settings:'wght' 500;letter-spacing:0px;fill:#3d5a80;stroke-width:65"
         d="m 1438.6238,1274.2734 h 13.125 q 2.8125,0 5.2083,-0.7031 2.4219,-0.7292 4.1667,-2.1354 1.7448,-1.3802 2.7343,-3.4375 0.9896,-2.0573 0.9636,-4.7656 0,-1.5365 -0.4427,-2.9167 -0.4167,-1.4062 -1.25,-2.5521 -0.8073,-1.0677 -2.0052,-1.901 -1.198,-0.8594 -2.8907,-1.3021 v -0.052 q 1.1459,-0.4687 2.0052,-1.0416 0.8855,-0.599 1.5886,-1.3802 0.9896,-1.0678 1.5104,-2.448 0.5469,-1.4062 0.5729,-3.0208 0,-2.6562 -1.0156,-4.5833 -0.9896,-1.9532 -2.7604,-3.2031 -1.7709,-1.25 -4.1927,-1.849 -2.4219,-0.625 -5.1823,-0.625 h -12.1354 z m 6.3021,-17.1354 h 7.1875 q 1.5364,0.026 2.7343,0.4688 1.1979,0.4166 2.0313,1.1979 0.8333,0.7812 1.25,1.901 0.4166,1.0938 0.4166,2.5261 0,1.3541 -0.5208,2.4739 -0.4948,1.0938 -1.4323,1.849 -0.8594,0.7292 -2.0833,1.1458 -1.224,0.4167 -2.7083,0.4167 h -6.875 z m 0,-4.7656 v -10.8333 h 5.9114 q 1.6146,0.026 2.9427,0.3906 1.3281,0.3385 2.2136,1.1198 0.7812,0.625 1.1979,1.6146 0.4427,0.9635 0.4427,2.2916 0,1.25 -0.4688,2.2136 -0.4687,0.9635 -1.276,1.6406 -0.8854,0.7552 -2.1875,1.1458 -1.276,0.3907 -2.8125,0.4167 z m 29.4531,33.2812 q 2.0573,0 3.5937,-0.7291 1.5365,-0.7032 2.6563,-1.7709 1.1198,-1.0416 1.8489,-2.2916 0.7552,-1.224 1.25,-2.3177 l 14.2969,-32.4479 h -6.9011 l -6.7968,17.2916 -1.1719,3.0209 -0.9635,-3.099 -7.0052,-17.2135 h -6.849 l 12.0052,26.927 -1.7708,3.3594 q -0.2865,0.5729 -0.625,1.0938 -0.3125,0.5208 -0.8334,1.1979 -0.5468,0.6771 -1.276,1.1979 -0.7292,0.5469 -1.6406,0.5469 -0.4167,0 -1.0938,-0.052 -0.651,-0.026 -1.1719,-0.052 l -0.8593,4.8698 q 0.7552,0.1823 1.5625,0.3125 0.8333,0.1562 1.7448,0.1562 z m 78.4635,-11.3802 h 6.3541 v -0.4427 q -0.5208,-1.0937 -0.8073,-2.6041 -0.2604,-1.5365 -0.2604,-3.4375 v -12.5261 q 0,-2.3958 -0.8854,-4.2187 -0.8854,-1.849 -2.4479,-3.0469 -1.5625,-1.1979 -3.724,-1.7969 -2.1354,-0.625 -4.6093,-0.625 -2.7605,0 -4.9219,0.7292 -2.1354,0.7031 -3.5938,1.9271 -1.5104,1.1979 -2.2916,2.7604 -0.7813,1.5625 -0.8073,3.2552 h 6.25 q 0,-0.8073 0.2864,-1.5104 0.3125,-0.7292 0.9375,-1.224 0.625,-0.5468 1.5625,-0.8593 0.9636,-0.3125 2.2396,-0.3125 1.4063,0 2.474,0.3645 1.0937,0.3386 1.8489,0.9896 0.7031,0.6511 1.0677,1.5365 0.3907,0.8854 0.3907,1.9791 v 1.9011 h -4.5313 q -3.0469,0 -5.4687,0.5729 -2.3959,0.5729 -4.0365,1.6667 -1.7708,1.1718 -2.7083,2.9687 -0.9115,1.7709 -0.9115,4.0886 0,1.7968 0.7031,3.3593 0.7292,1.5365 2.0313,2.6302 1.276,1.1198 3.0729,1.7709 1.8229,0.625 4.0104,0.625 1.3542,0 2.5261,-0.2604 1.1718,-0.2605 2.1875,-0.7292 1.0156,-0.4427 1.8229,-1.0417 0.8333,-0.625 1.4843,-1.3021 0.1303,0.8073 0.2865,1.5625 0.1823,0.7292 0.4688,1.25 z m -7.5782,-4.4791 q -1.1979,0 -2.0833,-0.2865 -0.8854,-0.3125 -1.4844,-0.8333 -0.5989,-0.5209 -0.9114,-1.25 -0.3125,-0.7552 -0.3125,-1.6146 0,-1.0417 0.3646,-1.875 0.3906,-0.8333 1.1718,-1.4323 0.8854,-0.7031 2.3698,-1.0677 1.4844,-0.3906 3.5156,-0.3906 h 4.0105 v 5.2083 q -0.3386,0.6771 -0.9636,1.3021 -0.625,0.625 -1.4844,1.1198 -0.8593,0.4948 -1.927,0.8073 -1.0417,0.3125 -2.2657,0.3125 z m 77.9427,4.4791 v -37.9166 h -6.1198 v 15.8594 h -12.7604 v -15.8594 h -6.0937 v 37.9166 h 6.0937 v -16.901 h 12.7604 v 16.901 z m 26.1198,0 h 5.651 v -28.177 h -6.25 v 19.9479 q -0.3646,0.7812 -0.8854,1.4323 -0.5208,0.625 -1.1979,1.0937 -0.8073,0.5208 -1.875,0.8333 -1.0677,0.2865 -2.4219,0.2865 -1.3021,0 -2.2656,-0.3385 -0.9636,-0.3386 -1.5886,-1.1459 -0.625,-0.7812 -0.9114,-2.0833 -0.2865,-1.3281 -0.2865,-3.2812 v -16.7448 h -6.2239 v 16.6927 q 0,3.1771 0.7031,5.4687 0.7031,2.2656 1.9792,3.724 1.302,1.4583 3.0989,2.1614 1.8229,0.6771 4.0104,0.6771 2.5521,0 4.6094,-1.1719 2.0573,-1.1979 3.4896,-3.3073 z m 17.0833,-28.177 h -5.4167 v 28.177 h 5.7292 v -21.6406 q 0.1562,-0.3906 0.3385,-0.7031 0.2084,-0.3125 0.4688,-0.5469 0.3385,-0.3385 0.8073,-0.4948 0.4948,-0.1823 1.1198,-0.1823 0.5729,0 1.0156,0.1563 0.4687,0.1562 0.8073,0.4948 0.3385,0.3385 0.4948,0.9375 0.1823,0.5729 0.1823,1.4062 v 20.5729 h 5.625 v -20.9114 q 0,-0.2604 0,-0.3906 0,-0.1563 0,-0.2604 0.1041,-0.4428 0.3125,-0.7813 0.2083,-0.3646 0.5208,-0.625 0.3385,-0.2865 0.7812,-0.4427 0.4427,-0.1563 1.0417,-0.1563 0.5729,0 1.0417,0.1563 0.4948,0.1562 0.8333,0.4948 0.3385,0.3646 0.5208,0.9635 0.1823,0.5729 0.1823,1.4063 v 20.5468 h 5.7292 v -20.4947 q 0,-2.2136 -0.4688,-3.7761 -0.4427,-1.5885 -1.276,-2.5781 -0.8333,-0.9375 -1.9792,-1.3802 -1.1198,-0.4688 -2.4739,-0.4688 -1.0417,0 -1.9271,0.2605 -0.8594,0.2604 -1.5625,0.7291 -0.5469,0.3646 -1.0156,0.8854 -0.4688,0.5209 -0.8334,1.1198 -0.2604,-0.651 -0.625,-1.1458 -0.3645,-0.5208 -0.8333,-0.8854 -0.5989,-0.4948 -1.4323,-0.7292 -0.8333,-0.2344 -1.875,-0.2344 -2.0052,0 -3.4375,0.9636 -1.4062,0.9635 -2.2135,2.6562 z m 46.4583,28.177 h 6.3542 v -0.4427 q -0.5209,-1.0937 -0.8073,-2.6041 -0.2604,-1.5365 -0.2604,-3.4375 v -12.5261 q 0,-2.3958 -0.8855,-4.2187 -0.8854,-1.849 -2.4479,-3.0469 -1.5625,-1.1979 -3.7239,-1.7969 -2.1355,-0.625 -4.6094,-0.625 -2.7604,0 -4.9219,0.7292 -2.1354,0.7031 -3.5937,1.9271 -1.5104,1.1979 -2.2917,2.7604 -0.7812,1.5625 -0.8073,3.2552 h 6.25 q 0,-0.8073 0.2865,-1.5104 0.3125,-0.7292 0.9375,-1.224 0.625,-0.5468 1.5625,-0.8593 0.9635,-0.3125 2.2395,-0.3125 1.4063,0 2.474,0.3645 1.0938,0.3386 1.849,0.9896 0.7031,0.6511 1.0677,1.5365 0.3906,0.8854 0.3906,1.9791 v 1.9011 h -4.5313 q -3.0468,0 -5.4687,0.5729 -2.3958,0.5729 -4.0365,1.6667 -1.7708,1.1718 -2.7083,2.9687 -0.9114,1.7709 -0.9114,4.0886 0,1.7968 0.7031,3.3593 0.7291,1.5365 2.0312,2.6302 1.2761,1.1198 3.0729,1.7709 1.823,0.625 4.0105,0.625 1.3541,0 2.526,-0.2604 1.1719,-0.2605 2.1875,-0.7292 1.0156,-0.4427 1.8229,-1.0417 0.8333,-0.625 1.4844,-1.3021 0.1302,0.8073 0.2864,1.5625 0.1823,0.7292 0.4688,1.25 z m -7.5781,-4.4791 q -1.1979,0 -2.0834,-0.2865 -0.8854,-0.3125 -1.4843,-0.8333 -0.599,-0.5209 -0.9115,-1.25 -0.3125,-0.7552 -0.3125,-1.6146 0,-1.0417 0.3646,-1.875 0.3906,-0.8333 1.1719,-1.4323 0.8854,-0.7031 2.3698,-1.0677 1.4843,-0.3906 3.5156,-0.3906 h 4.0104 v 5.2083 q -0.3385,0.6771 -0.9635,1.3021 -0.625,0.625 -1.4844,1.1198 -0.8594,0.4948 -1.9271,0.8073 -1.0417,0.3125 -2.2656,0.3125 z m 21.5885,4.4791 h 6.224 v -20.1041 q 0.4166,-0.7031 0.9635,-1.3021 0.5469,-0.599 1.1719,-1.0156 0.8073,-0.5469 1.7968,-0.8334 0.9896,-0.3125 2.1355,-0.3125 1.3802,0 2.4479,0.3125 1.0677,0.2865 1.8229,0.9896 0.7552,0.7032 1.1458,1.875 0.3906,1.1719 0.3906,2.9167 v 17.4739 h 6.224 v -17.5781 q 0,-2.9687 -0.7031,-5.0521 -0.7031,-2.1093 -1.9792,-3.4635 -1.276,-1.3542 -3.0729,-1.9792 -1.7969,-0.625 -3.9583,-0.625 -1.6407,0 -3.125,0.4688 -1.4844,0.4687 -2.7344,1.3281 -0.7813,0.5469 -1.4844,1.25 -0.6771,0.6771 -1.25,1.4844 l -0.3906,-4.0104 h -5.625 z m 39.7656,-3.75 q 0,1.7969 1.1719,3.0469 1.1979,1.224 3.3333,1.224 2.1094,0 3.3073,-1.224 1.224,-1.2239 1.224,-3.0469 0,-1.8229 -1.198,-3.0729 -1.1979,-1.276 -3.3333,-1.276 -2.1875,0 -3.3594,1.276 -1.1458,1.2761 -1.1458,3.0729 z"
         id="text2-8"
         aria-label="By a Human." /><path
         style="font-size:64px;line-height:0;font-family:'Roboto Mono';-inkscape-font-specification:'Roboto Mono, @wght=700';font-variation-settings:'wght' 700;letter-spacing:0px;fill:#28afb0;stroke-width:65"
         d="m 1488.6497,1354.9166 h 7.9375 l 3.8125,-24.5625 0.3437,-2.3125 0.3438,2.3125 3.9687,24.5625 h 7.9375 l 6.3125,-45.5 h -8.0625 l -3.0937,25.5 -0.2188,1.9063 -0.2812,-1.875 -3.8125,-25.5313 h -6.2813 l -3.5937,25.3438 -0.2813,1.875 -0.2187,-1.7813 -3.0313,-25.4375 h -8.0312 z m 38.0625,-33.8125 v 7.0938 h 9.625 v 19.6562 h -9.625 v 7.0625 h 27.5625 v -7.0625 h -9.1563 v -26.75 z m 9,-8.6562 q 0,1 0.3437,1.875 0.375,0.8437 1.0313,1.4375 0.6562,0.625 1.5625,0.9687 0.9375,0.3438 2.0625,0.3438 2.3125,0 3.6562,-1.2813 1.375,-1.3125 1.375,-3.3437 0,-2.0313 -1.375,-3.3125 -1.3437,-1.3125 -3.6562,-1.3125 -1.125,0 -2.0625,0.3437 -0.9063,0.3438 -1.5625,0.9375 -0.6563,0.625 -1.0313,1.5 -0.3437,0.8438 -0.3437,1.8438 z m 43.0312,0.375 h -8.6875 v 8.2812 h -7.7187 v 6.4063 h 7.7187 v 15.375 q 0,3.3437 0.875,5.75 0.875,2.375 2.5,3.9062 1.5938,1.5625 3.8438,2.3125 2.2812,0.7188 5.0625,0.7188 1.4375,0 2.9062,-0.1563 1.5,-0.125 2.875,-0.375 1.375,-0.25 2.5938,-0.625 1.2187,-0.4062 2.125,-0.9375 l -0.8438,-5.9687 q -0.5937,0.1562 -1.4375,0.3125 -0.8125,0.1562 -1.75,0.2812 -0.9687,0.1563 -2.0312,0.25 -1.0313,0.094 -2.0313,0.094 -1.375,0 -2.5,-0.3125 -1.0937,-0.3125 -1.875,-1.0625 -0.7812,-0.7188 -1.2187,-1.9375 -0.4063,-1.25 -0.4063,-3.0938 v -14.5312 h 12.625 v -6.4063 h -12.625 z m 31.1563,12.9375 v -18.8438 h -8.6875 v 48 h 8.6875 v -24.4062 q 0.5,-0.6563 1.0937,-1.1875 0.625,-0.5313 1.375,-0.9063 0.8125,-0.4375 1.8125,-0.6562 1,-0.2188 2.1563,-0.2188 1.5,0 2.6875,0.4063 1.1875,0.375 2.0312,1.1875 0.8438,0.8125 1.2813,2.125 0.4687,1.3125 0.4687,3.125 v 20.5312 h 8.6875 v -20.4687 q 0,-3.7188 -0.9062,-6.3438 -0.875,-2.6562 -2.4688,-4.3437 -1.5937,-1.6875 -3.8125,-2.4688 -2.2187,-0.8125 -4.875,-0.8125 -1.8125,0 -3.4375,0.5313 -1.625,0.5312 -2.9687,1.5 -0.875,0.625 -1.6875,1.4687 -0.7813,0.8125 -1.4375,1.7813 z m 90.1875,19.6562 2.6562,9.5 h 9.25 l -14.625,-45.5 h -7.9687 l -14.9063,45.5 h 9.25 l 2.6875,-9.5 z m -11.5,-7.4687 4.7812,-16.75 4.6563,16.75 z m 29.4687,-28.5313 v 7.0938 h 8.6563 v 31.3437 h -8.6563 v 7.0625 h 26.3125 v -7.0625 h -8.875 v -31.3437 h 8.875 v -7.0938 z m 45.5625,40.4688 q 0,2.4062 1.625,4.0312 1.625,1.625 4.4063,1.625 2.75,0 4.375,-1.5937 1.6562,-1.625 1.6562,-4.0625 0,-2.4375 -1.625,-4.0938 -1.5937,-1.6562 -4.4062,-1.6562 -2.8438,0 -4.4375,1.6875 -1.5938,1.6562 -1.5938,4.0625 z"
         id="text2-8-5"
         aria-label="With AI." /></g></g></svg>
