<?xml version="1.0" encoding="UTF-8" standalone="no"?>
<!-- Created with Inkscape (http://www.inkscape.org/) -->

<svg
   width="944.88184"
   height="168.66522"
   viewBox="0 0 249.99998 44.626006"
   version="1.1"
   id="svg1"
   xml:space="preserve"
   xmlns="http://www.w3.org/2000/svg"
   xmlns:svg="http://www.w3.org/2000/svg"><defs
     id="defs1" /><g
     id="layer1"
     transform="translate(-285.64872,-178.7547)"><g
       transform="matrix(1.3296837,0,0,1.3296837,277.68125,68.098924)"
       id="g10"
       style="clip-rule:evenodd;fill:#eeeeee;fill-opacity:1;fill-rule:evenodd;stroke-linejoin:round;stroke-miterlimit:1.41421">
        <path
   d="m 190.437,109.074 c -0.58,0 -1.11,1.187 -2.221,1.187 -1.994,0 0.025,-4.872 1.438,-4.872 0.557,0 0.644,0.592 0.118,1.228 -0.276,0.334 -0.067,0.741 0.564,0.741 2.347,0 2.802,-3.58 -0.328,-3.58 -2.075,0 -4.235,2.256 -4.909,4.397 -0.648,0.863 -1.419,1.783 -1.957,1.783 -1.141,0 1.363,-2.736 1.363,-4.556 0,-0.87 -0.574,-1.528 -1.615,-1.528 -0.96,0 -2.06,0.559 -3.28,2.09 0.254,-0.663 0.504,-1.321 0.604,-1.61 0.207,-0.596 -0.126,-0.581 -0.984,-0.429 -0.682,0.12 -1.015,0.195 -1.262,0.681 -1.59,3.13 -3.029,5.2 -3.811,5.2 -0.591,0 -0.548,-0.555 -0.038,-1.715 0.51,-1.159 1.906,-3.989 1.906,-3.989 0,10e-4 -0.283,-0.185 -1.071,-0.185 -0.789,0 -1.479,0.115 -1.933,0.967 -0.232,0.434 -1.191,2.537 -1.641,3.887 -0.649,1.948 0.139,3.182 1.521,3.182 1.491,0 2.67,-1.425 3.713,-3.039 -0.316,0.841 -0.69,1.838 -0.835,2.337 -0.133,0.454 0.037,0.57 0.359,0.57 0.494,0 0.911,-0.031 1.293,-0.066 0.382,-0.034 0.505,-0.208 0.695,-0.693 0.303,-0.776 0.695,-1.6 1.249,-2.707 1.079,-2.159 1.771,-2.588 2.228,-2.588 0.359,0 0.614,0.345 0.262,1.055 -0.666,1.343 -1.575,2.439 -1.575,3.59 0,0.858 0.627,1.614 1.578,1.614 1.323,0 2.366,-0.805 3.139,-1.769 0.344,1.08 1.378,1.795 2.641,1.795 2.77,0 3.799,-2.978 2.789,-2.978 z"
   style="fill:#eeeeee;fill-opacity:1;fill-rule:nonzero"
   id="path1" />
        <path
   d="m 174.371,101.697 c -0.187,0.834 0.289,1.511 1.062,1.511 0.774,0 1.552,-0.677 1.738,-1.511 0.187,-0.834 -0.289,-1.511 -1.063,-1.511 -0.773,0 -1.551,0.677 -1.737,1.511 z"
   style="fill:#eeeeee;fill-opacity:1;fill-rule:nonzero"
   id="path2" />
        <path
   d="m 192.954,109.164 c -0.738,0 -1.481,0.646 -1.659,1.443 -0.178,0.797 0.276,1.442 1.015,1.442 0.738,0 1.48,-0.645 1.658,-1.442 0.178,-0.797 -0.276,-1.443 -1.014,-1.443 z"
   style="fill:#eeeeee;fill-opacity:1;fill-rule:nonzero"
   id="path3" />
        <path
   d="m 23.903,97.898 c 1.641,-4.48 3.137,-8.771 3.998,-11.268 3.565,-0.409 5.393,0.692 5.393,3.365 0,2.606 -2.222,5.185 -6.931,6.984 -0.885,0.338 -1.715,0.647 -2.46,0.919 z m -8.414,9.289 c -2.079,4.287 -3.362,6.093 -4.997,6.347 -0.741,0.115 -1.317,-0.23 -1.317,-1.317 0,-1.19 1.264,-5.598 8.037,-9.134 -0.688,1.756 -1.292,3.216 -1.723,4.104 z m 19.912,6.922 c -1.363,-0.142 -2.421,-0.384 -3.426,-1.204 -0.916,-0.747 -1.629,-1.972 -2.209,-3.558 -1.239,-3.387 -2.467,-7.572 -3.068,-9.695 7.952,-2.802 11.675,-6.384 11.675,-10.406 0,-3.695 -3.015,-6.13 -9.709,-5.283 -2.96,0.375 -5.127,0.784 -7.42,1.23 -8.572,1.667 -11.786,5.371 -11.786,9.18 0,2.58 2.262,4.366 4.881,4.366 1.786,0 1.957,-0.993 1.428,-1.389 -1.111,-0.834 -1.776,-1.667 -1.776,-3.096 0,-2.24 1.684,-5.106 7.874,-6.481 0.401,-0.089 0.742,-0.166 1.047,-0.234 -1.027,2.901 -2.849,8.02 -4.507,12.427 -9.454,3.788 -12.413,8.976 -12.413,12.577 0,2.691 2.117,4.238 4.617,4.238 3.809,0 6.807,-2.553 9.206,-8.294 0.876,-2.095 1.835,-4.556 2.789,-7.089 0.608,2.237 1.724,6.149 2.916,9.298 0.689,1.82 1.313,3.127 2.248,4.061 1.133,1.129 2.656,1.693 4.458,1.693 2.143,0 3.433,-0.734 3.77,-1.25 0.39,-0.595 0.156,-1.012 -0.595,-1.091 z"
   style="fill:#eeeeee;fill-opacity:1;fill-rule:nonzero"
   id="path4" />
        <path
   d="m 124.646,96.828 c 1.902,0 0.421,4.993 -4.545,5.143 1.235,-2.665 3.269,-5.143 4.545,-5.143 z m 0.051,10.45 c -0.732,0 -1.793,1.174 -3.686,1.174 -1.287,0 -1.969,-0.822 -1.969,-2.537 0,-0.422 0.057,-0.879 0.159,-1.355 0.149,0.007 0.313,0.012 0.498,0.012 6.108,0 9.793,-3.53 9.793,-6.986 0,-2.499 -1.918,-3.752 -3.773,-3.752 -4.587,0 -10.082,5.422 -11.026,10.967 -1.3,2.252 -2.382,3.079 -3.071,3.045 -0.758,-0.038 -0.699,-1.082 0,-3.076 1.06,-3.02 2.575,-7.107 3.909,-10.256 2.645,-6.241 4.302,-9.694 4.523,-10.424 0.221,-0.73 -0.169,-0.839 -0.908,-0.73 -2.653,0.389 -4.144,0.273 -5.278,2.156 -1.779,2.953 -9.44,14.897 -9.44,14.897 0,0 2.272,-14.736 2.625,-16.261 0.189,-0.815 -0.257,-1.071 -0.962,-0.864 -0.858,0.253 -1.612,0.41 -2.761,0.789 -0.999,0.329 -1.225,0.67 -1.918,2.272 -0.361,0.834 -3.292,9.533 -5.363,13.925 -2.196,4.657 -3.938,7.383 -8.065,7.723 -1.114,0.092 -1.178,0.658 -0.871,1.363 0.644,1.477 2.247,2.348 3.711,2.348 2.574,0 4.402,-1.821 6.159,-6.046 1.455,-3.498 3.602,-9.544 5.198,-14.08 -1.327,7.059 -2.915,16.49 -3.139,18.955 -0.132,1.461 1.819,1.495 2.61,0.073 2.073,-3.732 6.509,-11.346 10.506,-18.254 -1.626,3.893 -3.541,8.54 -4.434,11.142 -0.611,1.913 -1.151,3.313 -1.151,5.062 0,2.02 1.403,3.227 2.93,3.227 1.585,0 3.39,-0.801 5.318,-3.241 0.578,2.04 2.097,3.297 4.676,3.297 3.357,0 5.856,-2.293 5.856,-3.757 0,-0.53 -0.252,-0.808 -0.656,-0.808 z"
   style="fill:#eeeeee;fill-opacity:1;fill-rule:nonzero"
   id="path5" />
        <path
   d="m 153.042,88.6 c 1.779,-1.287 3.152,-1.376 3.572,-1.721 0.643,-0.53 -0.228,-3.193 -2.722,-3.193 -3.98,0 -6.017,4.97 -7.615,9.356 -1.017,2.794 -2.151,6.253 -3.029,9.011 -0.015,0.048 -0.025,0.014 -0.022,-0.026 0.431,-6.145 1.161,-15.878 1.209,-16.966 0.025,-0.568 -0.014,-0.865 -0.266,-1.001 -0.112,-0.079 -0.378,-0.097 -0.528,-0.097 -0.535,0 -1.033,0.021 -1.53,0.038 -2.34,-0.001 -5.561,-0.003 -6.889,-0.003 -10.122,0 -9.364,9.469 -3.105,9.469 1.162,0 1.194,-1.128 0.632,-1.409 -2.272,-1.136 -2.74,-5.299 4.832,-5.299 0.982,0 1.579,0.003 2.055,0.008 -0.944,3.234 -2.724,8.698 -4.969,13.507 -2.398,5.136 -3.76,7.055 -7.496,8.014 -1.083,0.278 -1.007,0.882 -0.707,1.59 0.353,0.833 1.717,1.741 3.382,1.741 2.979,0 4.544,-2.17 6.146,-6.537 1.556,-4.236 2.866,-8.337 3.836,-11.513 0.003,-0.012 -0.002,-0.039 0.011,-0.037 0.02,0.004 -0.002,0.04 -0.003,0.06 -0.262,6.842 -0.524,15.557 -0.568,17.146 -0.033,1.205 0.445,1.206 1.381,0.801 1.919,-0.828 2.564,-1.114 3.079,-2.676 1.616,-4.896 3.161,-9.01 4.972,-13.599 1.136,-2.878 2.863,-5.594 4.342,-6.664 z"
   style="fill:#eeeeee;fill-opacity:1;fill-rule:nonzero"
   id="path6" />
        <path
   d="m 152.815,108.262 c -2.979,0 0.959,-11.13 3.634,-11.13 2.474,0 -0.492,11.13 -3.634,11.13 z m 5.769,-14.122 c -7.965,0 -11.878,9.24 -11.878,13.21 0,2.827 1.793,4.572 4.822,4.572 6.663,0 10.489,-9.087 10.489,-13.277 0,-2.827 -1.313,-4.505 -3.433,-4.505 z"
   style="fill:#eeeeee;fill-opacity:1;fill-rule:nonzero"
   id="path7" />
        <path
   d="m 179.595,89.307 c -0.661,0 -3,0.064 -6.543,0.186 0.573,-1.389 1.037,-2.517 1.344,-3.283 0.227,-0.568 0.115,-0.908 -0.493,-0.908 -0.542,0 -1.476,0.189 -2.612,0.491 -1.508,0.403 -1.69,0.672 -2.524,2.425 -0.177,0.372 -0.385,0.86 -0.624,1.454 -3.44,0.132 -7.484,0.296 -11.921,0.493 -1.74,0.077 -4.165,2.246 -2.07,2.246 4.172,0 8.687,0.154 12.821,0.282 -0.644,1.697 -1.428,3.78 -2.383,6.238 -1.197,3.082 -2.916,6.777 -2.916,9.314 0,1.893 1.288,3.51 3.559,3.51 2.84,0 4.013,-1.675 3.71,-2.621 -0.175,-0.55 -0.681,-0.531 -1.779,-0.531 -0.757,0 -1.022,-0.517 -1.022,-1.097 0,-0.872 0.409,-1.773 0.883,-3.009 1.604,-4.179 3.276,-8.307 4.657,-11.676 1.153,0.025 2.243,0.04 3.244,0.04 2.449,0 3.407,-0.071 4.265,-0.727 0.721,-0.551 1.06,-0.858 1.464,-1.363 0.421,-0.526 0.606,-1.464 -1.06,-1.464 z"
   style="fill:#eeeeee;fill-opacity:1;fill-rule:nonzero"
   id="path8" />
        <path
   d="m 78.742,93.367 c 1.311,0 2.629,-1.209 2.945,-2.701 0.315,-1.491 -0.491,-2.7 -1.801,-2.7 -1.311,0 -2.629,1.209 -2.945,2.7 -0.316,1.492 0.49,2.701 1.801,2.701 z"
   style="fill:#eeeeee;fill-opacity:1;fill-rule:nonzero"
   id="path9" />
        <path
   d="m 58.692,108.187 c -2.903,0 2.006,-10.98 4.77,-10.98 1.067,0 1.432,0.704 1.578,1.266 -2.262,5.31 -4.124,9.714 -6.348,9.714 z M 41.427,96.677 c 1.931,0 0.757,5.377 -4.392,5.377 -0.02,0 -0.038,-0.001 -0.058,-0.001 1.198,-2.815 3.175,-5.376 4.45,-5.376 z m 51.794,-9.238 c 1.118,0 -1.939,8.042 -7.584,12.482 2.434,-5.89 6.25,-12.482 7.584,-12.482 z m -8.91,21.253 c -0.635,-0.106 -0.808,-0.523 -0.808,-1.242 0,-0.888 0.251,-2.107 0.674,-3.508 10.397,-4.863 17.197,-19.763 9.46,-19.763 -5.139,0 -11.572,11.434 -13.617,19.159 -1.145,1.84 -3.099,4.622 -4.442,4.622 -1.061,0 -0.774,-1.402 -0.013,-3.474 1.78,-4.847 4.379,-9.832 4.379,-9.832 0,0 -1.312,-0.555 -3.079,-0.252 -1.165,0.2 -1.679,0.793 -2.223,1.83 -0.066,0.084 -0.141,0.209 -0.226,0.39 -3.369,7.231 -5.483,11.338 -7.395,11.338 -1.344,0 -0.571,-1.478 0.189,-3.55 1.78,-4.846 4.38,-9.831 4.38,-9.831 0,0 -1.313,-0.556 -3.08,-0.253 -1.111,0.191 -1.63,0.741 -2.147,1.691 -0.349,-0.985 -1.108,-1.977 -2.749,-1.977 -4.987,0 -8.75,6.429 -9.801,10.953 -1.027,1.588 -2.356,3.27 -3.375,3.27 -1.01,0 -0.994,-0.873 -0.202,-2.933 1.268,-3.298 3.722,-9.01 5.677,-13.488 4.906,0.108 9.552,0.211 12.194,0.211 2.449,0 3.407,-0.07 4.265,-0.727 0.721,-0.551 1.06,-0.858 1.464,-1.363 0.421,-0.526 0.606,-1.464 -1.06,-1.464 -0.913,0 -7.638,0.223 -15.627,0.528 0.599,-1.36 1.083,-2.448 1.366,-3.082 0.172,-0.384 -0.101,-0.808 -0.707,-0.757 -0.928,0.077 -1.262,0.202 -2.271,0.454 -1.515,0.379 -1.892,0.824 -2.726,2.576 -0.115,0.241 -0.273,0.582 -0.46,0.996 -3.184,0.126 -6.422,0.261 -9.46,0.396 -1.74,0.077 -3.711,1.994 -1.616,1.994 2.623,0 6.203,0.061 9.955,0.138 -0.653,1.496 -1.381,3.206 -2,4.733 -0.069,0.126 -0.141,0.274 -0.218,0.45 -2.537,5.793 -6.412,11.868 -10.69,11.868 -1.665,0 -2.372,-1.102 -2.372,-2.502 0,-0.541 0.076,-1.127 0.209,-1.733 0.162,0.009 0.343,0.015 0.548,0.015 6.108,0 9.718,-3.757 9.718,-7.214 0,-2.221 -1.843,-3.525 -3.698,-3.525 -5.036,0 -11.169,6.536 -11.169,12.594 0,3.256 1.754,5.415 4.732,5.415 4.002,0 7.104,-2.453 9.314,-5.151 -0.119,0.617 -0.189,1.215 -0.189,1.782 0,1.893 1.085,3.281 2.852,3.281 1.998,0 3.729,-1.216 5.339,-3.325 0.323,2.105 1.539,3.325 3.344,3.325 2.113,0 3.943,-1.619 5.388,-3.535 0.083,1.762 0.711,3.535 3.017,3.535 1.647,0 3.329,-0.881 5.332,-3.679 0.055,1.831 0.814,3.755 2.997,3.755 2.107,0 3.986,-1.503 5.698,-3.812 0.161,2.301 1.398,3.673 3.175,3.673 1.83,0 3.355,-1.186 3.268,-2.495 -0.055,-0.836 -0.908,-0.404 -1.514,-0.505 z"
   style="fill:#eeeeee;fill-opacity:1;fill-rule:nonzero"
   id="path10" />
    </g></g><style
     type="text/css"
     id="style1">
	.st0{fill:#8427E2;}
</style><style
     type="text/css"
     id="style1-5">
	.st0{fill:#B12422;}
</style><style
     type="text/css"
     id="style1-2">
	.st0{fill:#00AFB4;}
</style></svg>
