<svg id="visual" viewBox="0 0 960 540" width="960" height="540" xmlns="http://www.w3.org/2000/svg" xmlns:xlink="http://www.w3.org/1999/xlink" version="1.1"><rect x="0" y="0" width="960" height="540" fill="#3d5a80"></rect><defs><linearGradient id="grad1_0" x1="43.8%" y1="0%" x2="100%" y2="100%"><stop offset="14.444444444444446%" stop-color="#f4a261" stop-opacity="1"></stop><stop offset="85.55555555555554%" stop-color="#f4a261" stop-opacity="1"></stop></linearGradient></defs><defs><linearGradient id="grad1_1" x1="43.8%" y1="0%" x2="100%" y2="100%"><stop offset="14.444444444444446%" stop-color="#f4a261" stop-opacity="1"></stop><stop offset="85.55555555555554%" stop-color="#e87e7d" stop-opacity="1"></stop></linearGradient></defs><defs><linearGradient id="grad1_2" x1="43.8%" y1="0%" x2="100%" y2="100%"><stop offset="14.444444444444446%" stop-color="#bc6c95" stop-opacity="1"></stop><stop offset="85.55555555555554%" stop-color="#e87e7d" stop-opacity="1"></stop></linearGradient></defs><defs><linearGradient id="grad1_3" x1="43.8%" y1="0%" x2="100%" y2="100%"><stop offset="14.444444444444446%" stop-color="#bc6c95" stop-opacity="1"></stop><stop offset="85.55555555555554%" stop-color="#7c6497" stop-opacity="1"></stop></linearGradient></defs><defs><linearGradient id="grad1_4" x1="43.8%" y1="0%" x2="100%" y2="100%"><stop offset="14.444444444444446%" stop-color="#3d5a80" stop-opacity="1"></stop><stop offset="85.55555555555554%" stop-color="#7c6497" stop-opacity="1"></stop></linearGradient></defs><defs><linearGradient id="grad2_0" x1="0%" y1="0%" x2="56.3%" y2="100%"><stop offset="14.444444444444446%" stop-color="#f4a261" stop-opacity="1"></stop><stop offset="85.55555555555554%" stop-color="#f4a261" stop-opacity="1"></stop></linearGradient></defs><defs><linearGradient id="grad2_1" x1="0%" y1="0%" x2="56.3%" y2="100%"><stop offset="14.444444444444446%" stop-color="#e87e7d" stop-opacity="1"></stop><stop offset="85.55555555555554%" stop-color="#f4a261" stop-opacity="1"></stop></linearGradient></defs><defs><linearGradient id="grad2_2" x1="0%" y1="0%" x2="56.3%" y2="100%"><stop offset="14.444444444444446%" stop-color="#e87e7d" stop-opacity="1"></stop><stop offset="85.55555555555554%" stop-color="#bc6c95" stop-opacity="1"></stop></linearGradient></defs><defs><linearGradient id="grad2_3" x1="0%" y1="0%" x2="56.3%" y2="100%"><stop offset="14.444444444444446%" stop-color="#7c6497" stop-opacity="1"></stop><stop offset="85.55555555555554%" stop-color="#bc6c95" stop-opacity="1"></stop></linearGradient></defs><defs><linearGradient id="grad2_4" x1="0%" y1="0%" x2="56.3%" y2="100%"><stop offset="14.444444444444446%" stop-color="#7c6497" stop-opacity="1"></stop><stop offset="85.55555555555554%" stop-color="#3d5a80" stop-opacity="1"></stop></linearGradient></defs><g transform="translate(960, 0)"><path d="M0 297C-25.5 288.6 -51.1 280.1 -71.7 267.6C-92.3 255 -108 238.3 -133.5 231.2C-159 224.2 -194.3 226.8 -210 210C-225.7 193.2 -221.7 156.9 -226.9 131C-232.1 105.1 -246.6 89.7 -259.8 69.6C-273.1 49.5 -285 24.8 -297 0L0 0Z" fill="#5b608e"></path><path d="M0 237.6C-20.4 230.9 -40.9 224.1 -57.4 214C-73.8 204 -86.4 190.6 -106.8 185C-127.2 179.4 -155.5 181.5 -168 168C-180.5 154.5 -177.3 125.5 -181.5 104.8C-185.7 84.1 -197.3 71.8 -207.9 55.7C-218.4 39.6 -228 19.8 -237.6 0L0 0Z" fill="#9d6899"></path><path d="M0 178.2C-15.3 173.1 -30.6 168.1 -43 160.5C-55.4 153 -64.8 143 -80.1 138.7C-95.4 134.5 -116.6 136.1 -126 126C-135.4 115.9 -133 94.1 -136.1 78.6C-139.3 63.1 -148 53.8 -155.9 41.8C-163.8 29.7 -171 14.9 -178.2 0L0 0Z" fill="#d5728b"></path><path d="M0 118.8C-10.2 115.4 -20.4 112.1 -28.7 107C-36.9 102 -43.2 95.3 -53.4 92.5C-63.6 89.7 -77.7 90.7 -84 84C-90.3 77.3 -88.7 62.7 -90.8 52.4C-92.9 42.1 -98.6 35.9 -103.9 27.8C-109.2 19.8 -114 9.9 -118.8 0L0 0Z" fill="#f28e6e"></path><path d="M0 59.4C-5.1 57.7 -10.2 56 -14.3 53.5C-18.5 51 -21.6 47.7 -26.7 46.2C-31.8 44.8 -38.9 45.4 -42 42C-45.1 38.6 -44.3 31.4 -45.4 26.2C-46.4 21 -49.3 17.9 -52 13.9C-54.6 9.9 -57 5 -59.4 0L0 0Z" fill="#f4a261"></path></g><g transform="translate(0, 540)"><path d="M0 -297C26.2 -295.5 52.4 -293.9 76.1 -284C99.7 -274.1 120.8 -255.8 137 -237.3C153.2 -218.8 164.5 -200.1 187.4 -187.4C210.3 -174.6 244.8 -167.9 257.2 -148.5C269.6 -129.1 259.8 -97.2 262.7 -70.4C265.7 -43.6 281.3 -21.8 297 0L0 0Z" fill="#5b608e"></path><path d="M0 -237.6C21 -236.4 42 -235.1 60.9 -227.2C79.8 -219.3 96.7 -204.6 109.6 -189.8C122.5 -175 131.6 -160.1 149.9 -149.9C168.2 -139.7 195.9 -134.3 205.8 -118.8C215.7 -103.3 207.8 -77.8 210.2 -56.3C212.5 -34.8 225.1 -17.4 237.6 0L0 0Z" fill="#9d6899"></path><path d="M0 -178.2C15.7 -177.3 31.5 -176.3 45.7 -170.4C59.8 -164.4 72.5 -153.5 82.2 -142.4C91.9 -131.3 98.7 -120.1 112.4 -112.4C126.2 -104.8 146.9 -100.7 154.3 -89.1C161.8 -77.5 155.9 -58.3 157.6 -42.2C159.4 -26.1 168.8 -13.1 178.2 0L0 0Z" fill="#d5728b"></path><path d="M0 -118.8C10.5 -118.2 21 -117.6 30.4 -113.6C39.9 -109.6 48.3 -102.3 54.8 -94.9C61.3 -87.5 65.8 -80 75 -75C84.1 -69.9 97.9 -67.1 102.9 -59.4C107.8 -51.7 103.9 -38.9 105.1 -28.2C106.3 -17.4 112.5 -8.7 118.8 0L0 0Z" fill="#f28e6e"></path><path d="M0 -59.4C5.2 -59.1 10.5 -58.8 15.2 -56.8C19.9 -54.8 24.2 -51.2 27.4 -47.5C30.6 -43.8 32.9 -40 37.5 -37.5C42.1 -34.9 49 -33.6 51.4 -29.7C53.9 -25.8 52 -19.4 52.5 -14.1C53.1 -8.7 56.3 -4.4 59.4 0L0 0Z" fill="#f4a261"></path></g></svg>