<svg id="visual" viewBox="0 0 960 540" width="960" height="540" xmlns="http://www.w3.org/2000/svg" xmlns:xlink="http://www.w3.org/1999/xlink" version="1.1"><rect x="0" y="0" width="960" height="540" fill="#3d5a80"></rect><defs><linearGradient id="grad1_0" x1="43.8%" y1="0%" x2="100%" y2="100%"><stop offset="14.444444444444446%" stop-color="#f4a261" stop-opacity="1"></stop><stop offset="85.55555555555554%" stop-color="#f4a261" stop-opacity="1"></stop></linearGradient></defs><defs><linearGradient id="grad1_1" x1="43.8%" y1="0%" x2="100%" y2="100%"><stop offset="14.444444444444446%" stop-color="#f4a261" stop-opacity="1"></stop><stop offset="85.55555555555554%" stop-color="#bc6c95" stop-opacity="1"></stop></linearGradient></defs><defs><linearGradient id="grad1_2" x1="43.8%" y1="0%" x2="100%" y2="100%"><stop offset="14.444444444444446%" stop-color="#3d5a80" stop-opacity="1"></stop><stop offset="85.55555555555554%" stop-color="#bc6c95" stop-opacity="1"></stop></linearGradient></defs><defs><linearGradient id="grad2_0" x1="0%" y1="0%" x2="56.3%" y2="100%"><stop offset="14.444444444444446%" stop-color="#f4a261" stop-opacity="1"></stop><stop offset="85.55555555555554%" stop-color="#f4a261" stop-opacity="1"></stop></linearGradient></defs><defs><linearGradient id="grad2_1" x1="0%" y1="0%" x2="56.3%" y2="100%"><stop offset="14.444444444444446%" stop-color="#bc6c95" stop-opacity="1"></stop><stop offset="85.55555555555554%" stop-color="#f4a261" stop-opacity="1"></stop></linearGradient></defs><defs><linearGradient id="grad2_2" x1="0%" y1="0%" x2="56.3%" y2="100%"><stop offset="14.444444444444446%" stop-color="#bc6c95" stop-opacity="1"></stop><stop offset="85.55555555555554%" stop-color="#3d5a80" stop-opacity="1"></stop></linearGradient></defs><g transform="translate(960, 0)"><path d="M0 297C-21.6 278.5 -43.3 260.1 -68.1 254C-92.9 248 -120.9 254.4 -141.5 245.1C-162.1 235.8 -175.3 210.7 -191.6 191.6C-208 172.5 -227.4 159.3 -245.1 141.5C-262.7 123.7 -278.5 101.2 -286.9 76.9C-295.2 52.5 -296.1 26.3 -297 0L0 0Z" fill="#7c6497"></path><path d="M0 198C-14.4 185.7 -28.8 173.4 -45.4 169.4C-61.9 165.3 -80.6 169.6 -94.3 163.4C-108.1 157.2 -116.9 140.5 -127.8 127.8C-138.6 115 -151.6 106.2 -163.4 94.3C-175.2 82.5 -185.7 67.5 -191.3 51.2C-196.8 35 -197.4 17.5 -198 0L0 0Z" fill="#e87e7d"></path><path d="M0 99C-7.2 92.8 -14.4 86.7 -22.7 84.7C-31 82.7 -40.3 84.8 -47.2 81.7C-54 78.6 -58.4 70.2 -63.9 63.9C-69.3 57.5 -75.8 53.1 -81.7 47.2C-87.6 41.2 -92.8 33.7 -95.6 25.6C-98.4 17.5 -98.7 8.8 -99 0L0 0Z" fill="#f4a261"></path></g><g transform="translate(0, 540)"><path d="M0 -297C20.1 -274.1 40.2 -251.1 66.5 -248.2C92.8 -245.4 125.2 -262.5 148.5 -257.2C171.8 -251.9 186 -224.2 202.9 -202.9C219.9 -181.7 239.7 -166.9 254.6 -147C269.5 -127.1 279.7 -102 285.9 -76.6C292.2 -51.2 294.6 -25.6 297 0L0 0Z" fill="#7c6497"></path><path d="M0 -198C13.4 -182.7 26.8 -167.4 44.3 -165.5C61.9 -163.6 83.5 -175 99 -171.5C114.5 -167.9 124 -149.5 135.3 -135.3C146.6 -121.1 159.8 -111.3 169.7 -98C179.7 -84.7 186.4 -68 190.6 -51.1C194.8 -34.2 196.4 -17.1 198 0L0 0Z" fill="#e87e7d"></path><path d="M0 -99C6.7 -91.4 13.4 -83.7 22.2 -82.7C30.9 -81.8 41.7 -87.5 49.5 -85.7C57.3 -84 62 -74.7 67.6 -67.6C73.3 -60.6 79.9 -55.6 84.9 -49C89.8 -42.4 93.2 -34 95.3 -25.5C97.4 -17.1 98.2 -8.5 99 0L0 0Z" fill="#f4a261"></path></g></svg>