<?xml version="1.0" encoding="UTF-8" standalone="no"?>
<svg
   id="visual"
   viewBox="0 0 960 540"
   width="960"
   height="540"
   version="1.1"
   sodipodi:docname="the-problem-section-background.svg"
   inkscape:version="1.4.2 (f4327f4, 2025-05-13)"
   xmlns:inkscape="http://www.inkscape.org/namespaces/inkscape"
   xmlns:sodipodi="http://sodipodi.sourceforge.net/DTD/sodipodi-0.dtd"
   xmlns="http://www.w3.org/2000/svg"
   xmlns:svg="http://www.w3.org/2000/svg">
  <sodipodi:namedview
     id="namedview17"
     pagecolor="#ffffff"
     bordercolor="#000000"
     borderopacity="0.25"
     inkscape:showpageshadow="2"
     inkscape:pageopacity="0.0"
     inkscape:pagecheckerboard="0"
     inkscape:deskcolor="#d1d1d1"
     inkscape:zoom="2.0981481"
     inkscape:cx="480.18535"
     inkscape:cy="231.87114"
     inkscape:window-width="2560"
     inkscape:window-height="1351"
     inkscape:window-x="-9"
     inkscape:window-y="-8"
     inkscape:window-maximized="1"
     inkscape:current-layer="visual" />
  <rect
     x="0"
     y="0"
     width="960"
     height="540"
     fill="#3d5a80"
     id="rect1" />
  <defs
     id="defs2">
    <linearGradient
       id="grad1_0"
       x1="43.8%"
       y1="0%"
       x2="100%"
       y2="100%">
      <stop
         offset="14.444444444444446%"
         stop-color="#f4a261"
         stop-opacity="1"
         id="stop1" />
      <stop
         offset="85.55555555555554%"
         stop-color="#f4a261"
         stop-opacity="1"
         id="stop2" />
    </linearGradient>
  </defs>
  <defs
     id="defs4">
    <linearGradient
       id="grad1_1"
       x1="43.8%"
       y1="0%"
       x2="100%"
       y2="100%">
      <stop
         offset="14.444444444444446%"
         stop-color="#f4a261"
         stop-opacity="1"
         id="stop3" />
      <stop
         offset="85.55555555555554%"
         stop-color="#bc6c95"
         stop-opacity="1"
         id="stop4" />
    </linearGradient>
  </defs>
  <defs
     id="defs6">
    <linearGradient
       id="grad1_2"
       x1="43.8%"
       y1="0%"
       x2="100%"
       y2="100%">
      <stop
         offset="14.444444444444446%"
         stop-color="#3d5a80"
         stop-opacity="1"
         id="stop5" />
      <stop
         offset="85.55555555555554%"
         stop-color="#bc6c95"
         stop-opacity="1"
         id="stop6" />
    </linearGradient>
  </defs>
  <defs
     id="defs8">
    <linearGradient
       id="grad2_0"
       x1="0%"
       y1="0%"
       x2="56.3%"
       y2="100%">
      <stop
         offset="14.444444444444446%"
         stop-color="#f4a261"
         stop-opacity="1"
         id="stop7" />
      <stop
         offset="85.55555555555554%"
         stop-color="#f4a261"
         stop-opacity="1"
         id="stop8" />
    </linearGradient>
  </defs>
  <defs
     id="defs10">
    <linearGradient
       id="grad2_1"
       x1="0%"
       y1="0%"
       x2="56.3%"
       y2="100%">
      <stop
         offset="14.444444444444446%"
         stop-color="#bc6c95"
         stop-opacity="1"
         id="stop9" />
      <stop
         offset="85.55555555555554%"
         stop-color="#f4a261"
         stop-opacity="1"
         id="stop10" />
    </linearGradient>
  </defs>
  <defs
     id="defs12">
    <linearGradient
       id="grad2_2"
       x1="0%"
       y1="0%"
       x2="56.3%"
       y2="100%">
      <stop
         offset="14.444444444444446%"
         stop-color="#bc6c95"
         stop-opacity="1"
         id="stop11" />
      <stop
         offset="85.55555555555554%"
         stop-color="#3d5a80"
         stop-opacity="1"
         id="stop12" />
    </linearGradient>
  </defs>
  <g
     transform="translate(960, 0)"
     id="g14">
    <path
       d="M0 297C-21.6 278.5 -43.3 260.1 -68.1 254C-92.9 248 -120.9 254.4 -141.5 245.1C-162.1 235.8 -175.3 210.7 -191.6 191.6C-208 172.5 -227.4 159.3 -245.1 141.5C-262.7 123.7 -278.5 101.2 -286.9 76.9C-295.2 52.5 -296.1 26.3 -297 0L0 0Z"
       fill="#7c6497"
       id="path12"
       style="fill:#28afb0;fill-opacity:1" />
    <path
       d="m 0,231.36275 c -17.86626,-14.37253 -35.73252,-28.74507 -56.328348,-33.41906 -20.471756,-4.79085 -43.673082,0.2337 -60.670842,-7.01099 -17.12183,-7.2447 -28.0401,-26.75862 -41.56387,-41.59856 -13.39969,-14.95678 -29.52896,-25.23957 -44.16936,-39.14471 C -217.37283,96.401147 -230.40031,78.873666 -237.3483,59.827136 -244.17222,40.897456 -244.91665,20.448728 -245.66108,0 H 0 Z"
       fill="#e87e7d"
       id="path13"
       style="fill:#f4a261;fill-opacity:1;stroke-width:1.20406" />
    <path
       d="m 0,152.43804 c -14.78199,-9.54663 -29.563981,-18.93928 -46.604329,-22.01883 -17.04035,-3.07956 -36.133753,0.15398 -50.299828,-4.61933 C -110.86492,121.02656 -119.89836,108.09243 -131.19016,98.391824 -142.27666,88.537243 -155.6215,81.76222 -167.73453,72.677528 -179.84754,63.43886 -190.52343,51.890523 -196.27198,39.41832 -202.02053,26.946118 -202.63644,13.550048 -203.25236,0 H 0 Z"
       fill="#f4a261"
       id="path14"
       style="fill:#e07a5f;fill-opacity:1;stroke-width:1.77799" />
  </g>
  <g
     transform="translate(0, 540)"
     id="g17">
    <path
       d="M0 -297C20.1 -274.1 40.2 -251.1 66.5 -248.2C92.8 -245.4 125.2 -262.5 148.5 -257.2C171.8 -251.9 186 -224.2 202.9 -202.9C219.9 -181.7 239.7 -166.9 254.6 -147C269.5 -127.1 279.7 -102 285.9 -76.6C292.2 -51.2 294.6 -25.6 297 0L0 0Z"
       fill="#7c6497"
       id="path15"
       style="fill:#28afb0;fill-opacity:1" />
    <path
       d="m 0,-226.12004 c 16.238482,17.47292 32.476964,34.94583 53.683936,37.11567 21.328156,2.16984 47.503624,-10.8492 66.286934,-6.85213 18.78332,4.11128 30.29568,25.12445 43.98932,41.34114 13.69365,16.21669 29.68977,27.40849 41.68685,42.59736 12.11827,15.188874 20.23751,34.260614 25.32719,53.560759 5.08967,19.300144 7.02859,38.828692 8.96752,58.357241 H 0 Z"
       fill="#e87e7d"
       id="path16"
       style="fill:#f4a261;fill-opacity:1;stroke-width:1.17641" />
    <path
       d="m 0,-157.69255 c 12.497103,12.10569 24.994207,24.37067 41.408313,25.96351 16.227582,1.43358 36.372166,-7.6457 50.921033,-4.77855 14.548864,2.70784 23.315494,17.52139 33.760834,28.83065 10.63186,11.149983 22.94244,19.114254 32.26863,29.627091 9.13968,10.512836 15.48149,23.89281 19.3985,37.43207 3.917,13.379974 5.40919,27.07852 6.90139,40.617779 H 0 Z"
       fill="#f4a261"
       id="path17"
       style="fill:#e07a5f;fill-opacity:1;stroke-width:1.72367" />
  </g>
</svg>
