<svg id="visual" viewBox="0 0 900 600" width="900" height="600" xmlns="http://www.w3.org/2000/svg" xmlns:xlink="http://www.w3.org/1999/xlink" version="1.1"><rect x="0" y="0" width="900" height="600" fill="#3d5a80"></rect><path d="M0 272L37.5 279.8C75 287.7 150 303.3 225 303.7C300 304 375 289 450 293.8C525 298.7 600 323.3 675 336.5C750 349.7 825 351.3 862.5 352.2L900 353L900 601L862.5 601C825 601 750 601 675 601C600 601 525 601 450 601C375 601 300 601 225 601C150 601 75 601 37.5 601L0 601Z" fill="#28afb0" stroke-linecap="round" stroke-linejoin="miter"></path></svg>